<?xml version="1.0" encoding="utf-8"?>
<!-- Generator: Adobe Illustrator 23.0.2, SVG Export Plug-In . SVG Version: 6.00 Build 0)  -->
<svg version="1.1" id="Capa_1" xmlns="http://www.w3.org/2000/svg" xmlns:xlink="http://www.w3.org/1999/xlink" x="0px" y="0px"
	 viewBox="186 392.7 43.1 8.9" style="enable-background:new 186 392.7 43.1 8.9;" xml:space="preserve">
<style type="text/css">
	.st0{fill:#FFFFFF;}
</style>
<g>
	<path class="st0" d="M228.7,396.9l-10.5-4c-0.4-0.2-1-0.2-1.5,0c-0.4,0.1-0.5,0.4-0.1,0.6c0,0,0.1,0,0.1,0l8.7,3.4H187
		c-0.6,0-1,0.2-1,0.4c0,0.2,0.5,0.4,1,0.4h38.5l-8.7,3.3c-0.4,0.1-0.5,0.4-0.1,0.6c0.4,0.2,1,0.2,1.5,0c0,0,0.1,0,0.1,0l10.5-4
		C229.1,397.3,229.1,397,228.7,396.9L228.7,396.9z"/>
</g>
</svg>
