<?xml version="1.0" encoding="utf-8"?>
<!-- Generator: Adobe Illustrator 23.0.2, SVG Export Plug-In . SVG Version: 6.00 Build 0)  -->
<svg version="1.1" id="Слой_1" xmlns="http://www.w3.org/2000/svg" xmlns:xlink="http://www.w3.org/1999/xlink" x="0px" y="0px"
	 viewBox="0 0 22.9 34.3" style="enable-background:new 0 0 22.9 34.3;" xml:space="preserve">
<style type="text/css">
	.st0{fill:#4C649F;}
</style>
<g>
	<path class="st0" d="M11.4,0C5.1,0,0,5.1,0,11.4v11.5c0,6.3,5.1,11.4,11.4,11.4c6.3,0,11.4-5.1,11.4-11.4V11.4
		C22.9,5.1,17.8,0,11.4,0L11.4,0z M21.6,22.9c0,5.6-4.6,10.2-10.2,10.2c-5.6,0-10.2-4.6-10.2-10.2V11.4c0-5.6,4.6-10.2,10.2-10.2
		c5.6,0,10.2,4.6,10.2,10.2V22.9z M21.6,22.9"/>
	<path class="st0" d="M11.4,3.8c-0.4,0-0.6,0.3-0.6,0.6v5.8c0,0.4,0.3,0.6,0.6,0.6c0.4,0,0.6-0.3,0.6-0.6V4.5
		C12.1,4.1,11.8,3.8,11.4,3.8L11.4,3.8z M11.4,3.8"/>
</g>
</svg>
