<?xml version="1.0" encoding="utf-8"?>
<!-- Generator: Adobe Illustrator 23.0.2, SVG Export Plug-In . SVG Version: 6.00 Build 0)  -->
<svg version="1.1" id="Слой_1" xmlns="http://www.w3.org/2000/svg" xmlns:xlink="http://www.w3.org/1999/xlink" x="0px" y="0px"
	 viewBox="0 0 38.5 26.5" style="enable-background:new 0 0 38.5 26.5;" xml:space="preserve">
<style type="text/css">
	.st0{fill:#2CA079;}
</style>
<g>
	<g>
		<path class="st0" d="M8.5,9.6c4.7,0,8.4,3.8,8.4,8.4s-3.8,8.4-8.4,8.4S0,22.7,0,18.1l0-1.2C0,7.5,7.5,0,16.8,0v4.8
			c-3.2,0-6.2,1.3-8.5,3.5C7.9,8.8,7.5,9.2,7.1,9.7C7.6,9.7,8,9.6,8.5,9.6L8.5,9.6z M30.1,9.6c4.7,0,8.4,3.8,8.4,8.4
			s-3.8,8.4-8.4,8.4c-4.7,0-8.4-3.8-8.4-8.4l0-1.2C21.7,7.5,29.2,0,38.5,0v4.8c-3.2,0-6.2,1.3-8.5,3.5c-0.4,0.4-0.8,0.9-1.2,1.4
			C29.2,9.7,29.7,9.6,30.1,9.6L30.1,9.6z M30.1,9.6"/>
	</g>
</g>
</svg>
