<?xml version="1.0" encoding="utf-8"?>
<!-- Generator: Adobe Illustrator 23.0.2, SVG Export Plug-In . SVG Version: 6.00 Build 0)  -->
<svg version="1.1" id="Capa_1" xmlns="http://www.w3.org/2000/svg" xmlns:xlink="http://www.w3.org/1999/xlink" x="0px" y="0px"
	 viewBox="189.4 376.2 35.2 42.1" style="enable-background:new 189.4 376.2 35.2 42.1;" xml:space="preserve">
<style type="text/css">
	.st0{fill:url(#SVGID_1_);}
</style>
<linearGradient id="SVGID_1_" gradientUnits="userSpaceOnUse" x1="189.4033" y1="397.1914" x2="224.5967" y2="397.1914">
	<stop  offset="0" style="stop-color:#00ED7E"/>
	<stop  offset="1" style="stop-color:#00AA7E"/>
</linearGradient>
<path class="st0" d="M193.1,418.2c-0.2,0-0.4-0.2-0.4-0.4c0-0.2,0.2-0.4,0.4-0.4h1.5v-2.2c0-0.2,0.2-0.4,0.4-0.4h1.4l5.1-17.7l0-6.3
	h-7.7v1.7h1.3c0.2,0,0.4,0.2,0.4,0.4v2.6c0,0.2-0.2,0.4-0.4,0.4h-3.4c-0.2,0-0.4-0.2-0.4-0.4v-2.6c0-0.2,0.2-0.4,0.4-0.4h1.3v-1.7
	h-3c-0.2,0-0.4-0.2-0.4-0.4c0-0.2,0.1-0.4,0.3-0.5l11.7-3.3v-6.1h-7.7v1.7h1.3c0.2,0,0.4,0.2,0.4,0.4v2.6c0,0.2-0.2,0.4-0.4,0.4
	h-3.4c-0.2,0-0.4-0.2-0.4-0.4v-2.6c0-0.2,0.2-0.4,0.4-0.4h1.3v-1.7h-3c-0.2,0-0.4-0.2-0.4-0.4s0.1-0.4,0.3-0.5l12-3.4l0.1,0l10.4,0
	l12.1,3.5c0.2,0.1,0.3,0.3,0.3,0.5c0,0.2-0.2,0.4-0.4,0.4h-3v1.7h1.3c0.2,0,0.4,0.2,0.4,0.4v2.6c0,0.2-0.2,0.4-0.4,0.4H219
	c-0.2,0-0.4-0.2-0.4-0.4v-2.6c0-0.2,0.2-0.4,0.4-0.4h1.3v-1.7h-7.7v6.1l11.7,3.3c0.2,0.1,0.3,0.3,0.3,0.5c0,0.2-0.2,0.4-0.4,0.4h-3
	v1.7h1.3c0.2,0,0.4,0.2,0.4,0.4v2.6c0,0.2-0.2,0.4-0.4,0.4H219c-0.2,0-0.4-0.2-0.4-0.4v-2.6c0-0.2,0.2-0.4,0.4-0.4h1.3v-1.7h-7.7
	v6.4l5,17.6h1.4c0.2,0,0.4,0.2,0.4,0.4v2.2h1.5c0.2,0,0.4,0.2,0.4,0.4c0,0.2-0.2,0.4-0.4,0.4H193.1z M218.6,417.4v-1.7h-13.2
	c-0.2,0-0.4-0.2-0.4-0.4s0.2-0.4,0.4-0.4h9.1l0.1-0.5l-7.5-3.8l-7.5,3.8l0.1,0.5h3c0.2,0,0.4,0.2,0.4,0.4s-0.2,0.4-0.4,0.4h-7.2v1.7
	H218.6z M197.4,414.4l8.7-4.3l-6.5-3.3L197.4,414.4z M216.6,414.4l-2.2-7.6l-6.5,3.3L216.6,414.4z M207,409.6l5-2.5l-0.1-0.5h-9.7
	l-0.1,0.5L207,409.6z M213.4,405.8l-6.4-4.5l-6.4,4.5H213.4z M214,405.2l-2.1-7.3l-4.2,2.9L214,405.2z M200,405.2l6.3-4.4l-4.2-2.9
	L200,405.2z M207,400.3l3.8-2.7h-7.6L207,400.3z M210.8,396.8l-8.5-5.7v5.7H210.8z M211.7,396.4v-5.7h-8.5L211.7,396.4z M222,395.1
	v-1.7h-2.6v1.7H222z M194.6,395.1v-1.7H192v1.7H194.6z M219.5,389.9l0.1-0.5l-7-2v2.5H219.5z M211.7,389.9v-2.6h-9.5v2.6H211.7z
	 M201.4,389.9v-2.5l-7,2l0.1,0.5H201.4z M210.8,386.5l-8.5-5.7v5.7H210.8z M211.7,386.1v-5.7h-8.5L211.7,386.1z M222,384.7V383h-2.6
	v1.7H222z M194.6,384.7V383H192v1.7H194.6z M219.5,379.6l0.1-0.5l-7-2v2.5H219.5z M211.7,379.6V377h-9.5v2.6H211.7z M201.4,379.6
	v-2.5l-7,2l0.1,0.5H201.4z"/>
</svg>
