<?xml version="1.0" encoding="utf-8"?>
<!-- Generator: Adobe Illustrator 23.0.2, SVG Export Plug-In . SVG Version: 6.00 Build 0)  -->
<svg version="1.1" id="Capa_1" xmlns="http://www.w3.org/2000/svg" xmlns:xlink="http://www.w3.org/1999/xlink" x="0px" y="0px"
	 viewBox="185.4 373.9 44.2 39.6" style="enable-background:new 185.4 373.9 44.2 39.6;" xml:space="preserve">
<style type="text/css">
	.st0{fill:url(#SVGID_1_);}
	.st1{fill:url(#SVGID_2_);}
</style>
<linearGradient id="SVGID_1_" gradientUnits="userSpaceOnUse" x1="185.3728" y1="393.6816" x2="229.5746" y2="393.6816">
	<stop  offset="0" style="stop-color:#00ED7E"/>
	<stop  offset="1" style="stop-color:#00AA7E"/>
</linearGradient>
<path class="st0" d="M192.2,413.5c-3.7,0-6.8-2.8-6.8-6.3c0-1.7,0.7-3.3,2-4.5l0.1-0.1v-19.2c0-1.6,1.3-2.9,2.8-2.9l0.2,0v-1.8
	l-0.2,0c-0.4-0.1-0.7-0.4-0.7-0.9v-3.1c0-0.5,0.4-0.9,0.9-0.9h5.3c0.5,0,0.9,0.4,0.9,0.9v3.1c0,0.4-0.3,0.8-0.7,0.9l-0.2,0v1.8
	l0.2,0c1.6,0,2.8,1.3,2.8,2.9v2.7l0.3-0.1c0.1,0,0.3-0.1,0.4-0.1c0.2,0,0.3,0,0.5,0c0.5,0,0.9,0.1,1.4,0.3l0.1,0.1l0.1-0.1
	c0.5-0.5,1-0.8,1.7-0.9c0.2,0,0.4,0,0.5,0c0.8,0,1.5,0.3,2.1,0.8l0.1,0.1l3.3-3.3c0.2-0.2,0.4-0.3,0.6-0.3s0.5,0.1,0.6,0.3
	c0.7,0.7,1.2,1.5,1.5,2.4l0.1,0.2l0.2-0.1c0.8-0.5,1.8-0.8,2.8-0.8c0.7,0,1.3,0.1,1.9,0.4c0.1,0,0.1,0.1,0.2,0.1
	c0.1,0.1,0.1,0.1,0.1,0.2c0.3,0.9,0.4,1.8,0.3,2.8l0,0.3l0.3-0.1c0.2,0,0.4-0.1,0.7-0.1c1.7,0,3.2,1.4,3.2,3.1l0,0.2l0.4,0
	c0.6,0,1.2,0.1,1.8,0.3c0.1,0,0.1,0.1,0.2,0.1c0.1,0.1,0.1,0.1,0.1,0.2c0.5,1.2,0.5,2.5,0,3.6l-0.1,0.2l0.2,0.1
	c0.3,0.1,0.5,0.5,0.5,0.8c0,1-0.1,2-0.3,2.9l0,0.3l0.3,0c0,0,0.1,0,0.1,0c0.1,0,0.2,0,0.3,0c0.3,0.1,0.5,0.3,0.6,0.5l0.5,0.8
	c0.1,0.1,0.1,0.2,0.1,0.3c0.1,0.4-0.1,0.8-0.4,1.1l-1.4,0.9l0.2,0.5l3.2-0.6c0.1,0,0.1,0,0.2,0c0.5,0,0.9,0.4,1,0.8l0.2,0.9
	c0,0.3,0,0.5-0.2,0.8c-0.2,0.2-0.4,0.4-0.7,0.4l-3.2,0.6l0,0.5l1.6,0.4c0.4,0.1,0.7,0.4,0.8,0.8c0,0.1,0,0.2,0,0.3l-0.1,1
	c0,0.3-0.2,0.5-0.4,0.7c-0.2,0.1-0.4,0.2-0.6,0.2c-0.1,0-0.1,0-0.2,0l-5.5-1l0,0.3c0.1,0.8-0.1,1.6-0.6,2.2c-0.5,0.6-1.3,1-2.2,1
	L192.2,413.5z M189.3,402.5c-1.9,0.9-3.1,2.8-3.1,4.7c0,3,2.6,5.4,5.9,5.4h4.3l-0.2-0.3c-0.2-0.3-0.4-0.7-0.4-1.1l0-0.1
	c-0.2-1.3,0.5-2.6,1.8-3.1l4.8-1.8l0-0.2c-0.4-1.5-1.4-2.8-2.9-3.5l-0.1-0.1l-0.1,0.1c-0.2,0.1-0.4,0.3-0.7,0.4l-0.2,0.1l0.1,0.2
	c0.1,0.2,0.2,0.4,0.2,0.6c0,0.2-0.1,0.5-0.2,0.7c-0.2,0.2-0.6,0.4-1,0.4c-0.6,0-1.5-0.3-2.3-0.7c-0.2-0.1-0.4-0.2-0.5-0.3l-0.1-0.1
	l-0.1,0.1c-0.2,0.1-0.3,0.2-0.5,0.3c-0.8,0.4-1.7,0.7-2.3,0.7c-0.4,0-0.7-0.1-0.9-0.2l-0.1,0.1l-0.2-0.5l-0.2-0.5l0.1,0
	c0-0.2,0.1-0.4,0.2-0.5l0.1-0.2l-0.2-0.1c-0.3-0.1-0.5-0.2-0.7-0.4l-0.1-0.1L189.3,402.5z M197.8,408.8c-0.9,0.3-1.4,1.2-1.2,2.1
	l0,0.1c0.2,0.9,0.9,1.5,1.9,1.5l7.9,0l-0.4-2.1c0-0.2,0.1-0.5,0.4-0.5c0,0,0,0,0,0c0.3,0,0.5,0.1,0.5,0.4l0.4,2.3l5.6,0l-0.3-1.6
	c0-0.2,0.1-0.5,0.4-0.5c0,0,0,0,0,0c0.3,0,0.5,0.1,0.5,0.4l0.3,1.7l2.7,0l-0.4-2.3c0-0.2,0.1-0.5,0.4-0.5c0,0,0,0,0,0
	c0.3,0,0.5,0.1,0.5,0.4l0.5,2.5h0.9c0.6,0,1.1-0.2,1.5-0.7c0.4-0.4,0.5-1,0.4-1.5l-1.3-7.1c-0.1-0.6-0.4-1-0.9-1.3
	c-0.3-0.2-0.6-0.2-0.9-0.2c-0.2,0-0.5,0-0.7,0.1l-5.2,2l0.4,2c0,0.2-0.1,0.5-0.4,0.5c0,0,0,0,0,0c-0.3,0-0.5-0.1-0.5-0.4l-0.3-1.8
	l-1.2,0.5l-0.1,0c-0.2,0-0.4-0.1-0.4-0.3c0-0.1,0-0.2,0-0.3c0-0.1,0.1-0.2,0.3-0.2l7.3-2.8c0.3-0.1,0.7-0.2,1-0.2
	c0.5,0,1,0.1,1.4,0.4c0.6,0.4,1.1,1,1.3,1.7l0.1,0.2l3.8-2.3l0-0.1c0.3-1.2,0.4-2.3,0.5-3.6l0-0.2h-5.3c-0.3,0-0.5-0.2-0.5-0.5
	s0.2-0.5,0.5-0.5h0.9l0-0.2c0-0.2,0-0.5,0-0.7c-0.1-0.9-0.9-1.5-1.7-1.6c-0.2,0-0.4-0.2-0.4-0.5c0-0.1,0-0.2,0-0.3
	c-0.2-0.9-1-1.6-1.9-1.6c-0.1,0-0.2,0-0.3,0c-0.4,0.1-0.7,0.2-1,0.5L214,392l0.4,0c0.5,0,0.8,0.4,0.8,0.9c0,1-0.2,1.9-0.6,2.7
	l-0.1,0.3h0.6c0.3,0,0.5,0.2,0.5,0.5s-0.2,0.5-0.5,0.5h-21.5l0,0.2c0,0.7,0.1,1.4,0.2,2.1l0.1,0.3l0.3-0.3l0.1,0l0.1,0
	c0.3,0,0.5,0.2,0.5,0.4v0.6l0.2-0.1c0.4-0.1,1-0.2,1.5-0.2c0.8,0,1.5,0.1,2,0.3c0.5,0.2,0.8,0.5,1,0.7l0.1,0l0.1,0.4l0.1,0
	c1.7,0.8,2.9,2.3,3.4,4l0.1,0.2l2-0.8l0.1,0c0.2,0,0.4,0.1,0.4,0.3c0,0.1,0,0.2,0,0.3c-0.1,0.1-0.1,0.2-0.3,0.2l-4,1.5l0.3,1.4
	c0,0.2-0.1,0.5-0.4,0.5c0,0,0,0,0,0c-0.3,0-0.5-0.1-0.5-0.4l-0.2-1.3L197.8,408.8z M226.8,410.1l0.2-1.2l-5-1.2
	c-0.2,0-0.4-0.2-0.4-0.5c0-0.2,0.2-0.4,0.4-0.4l6.7-1.2l-0.2-1.2c-6.7,1.2-6.7,1.2-6.8,1.2c-0.2,0-0.4-0.1-0.4-0.3
	c-0.1-0.2,0-0.4,0.2-0.5l4.3-2.9l-0.6-1.1l-5.2,3.1l0.9,5L226.8,410.1z M194.3,402.6c0.1,0,0.2,0,0.3,0.1c0.2,0.2,0.5,0.4,0.8,0.5
	c0.7,0.4,1.4,0.6,1.9,0.6l0.3,0l-0.2-0.3c-0.1-0.1-0.3-0.3-0.5-0.5c-0.1-0.1-0.2-0.3-0.2-0.5c0.1-0.2,0.2-0.3,0.4-0.3
	c0.5-0.1,1-0.2,1.3-0.4l0.3-0.2l-0.3-0.2c-0.2-0.1-0.8-0.4-2-0.4c-0.8,0-1.5,0.1-2,0.4l-0.1,0h-0.3l-0.1,0c-0.4-0.2-1.2-0.4-2-0.4
	c-1.2,0-1.8,0.3-2,0.4l-0.3,0.2l0.3,0.2c0.3,0.2,0.8,0.3,1.3,0.4c0.2,0,0.3,0.1,0.4,0.3c0.1,0.2,0,0.4-0.2,0.5
	c-0.2,0.2-0.4,0.3-0.5,0.5l-0.2,0.3c0.2,0,0.3,0,0.3,0c0.5,0,1.2-0.2,1.9-0.6c0.3-0.2,0.6-0.3,0.8-0.5
	C194.1,402.6,194.2,402.6,194.3,402.6z M188.4,401.9l0.3-0.2l0.4-0.2l0.1-0.4l0.1,0c0.1-0.3,0.4-0.5,0.9-0.7c0.6-0.2,1.3-0.3,2-0.3
	c0.2,0,0.4,0,0.6,0l0.3,0l0-0.3c-0.2-1-0.3-2-0.3-3c0-0.5,0.4-0.9,0.9-0.9h0.3l0-0.2c0-0.2,0.1-0.4,0.1-0.6l0.1-0.3h-5.7V401.9z
	 M211.9,396l1.5,0l0.1-0.1c0.5-0.8,0.8-1.8,0.9-2.7l0-0.2h-10.8l0,0.2c0,1,0.3,1.9,0.9,2.7l0.1,0.1h1.6l0.1-0.1l0.7-0.7
	c0.1-0.1,0.2-0.1,0.3-0.1c0.1,0,0.2,0,0.3,0.1c0.1,0.1,0.2,0.4,0.1,0.6l-0.2,0.3h1.2l0-0.1c0.1-0.2,0.2-0.3,0.4-0.3
	c0.2,0,0.4,0.1,0.4,0.3l0,0.1h1.1l-0.2-0.3c-0.1-0.2-0.1-0.4,0.1-0.6c0.1-0.1,0.2-0.1,0.3-0.1c0.1,0,0.2,0,0.3,0.1l0.7,0.7l0.1,0.2
	L211.9,396z M223.2,396L223.2,396c0.6-1.1,0.7-2.2,0.4-3.3l0-0.1l-0.1,0c-0.4-0.1-0.8-0.2-1.2-0.2c-0.9,0-1.7,0.3-2.4,0.8l-0.2,0.1
	l0.2,0.2c0.3,0.3,0.5,0.7,0.7,1.1l0.1,0.3l0.5-0.5c0.1-0.1,0.2-0.1,0.3-0.1c0.1,0,0.2,0,0.3,0.1c0.2,0.2,0.2,0.5,0,0.6l-0.9,0.9
	H223.2z M203.4,396l-0.1-0.3c-0.2-0.4-0.4-0.9-0.5-1.4l0,0l0,0c-0.1-0.1-0.2-0.2-0.3-0.3c-0.7-0.7-1.7-1.1-2.7-1.1
	c-0.4,0-0.8,0.1-1.2,0.2l-0.1,0l0,0.1c-0.3,0.9-0.3,1.9,0.1,2.8l0.1,0.1h2.2l-0.5-0.5c-0.1-0.1-0.1-0.2-0.1-0.3c0-0.1,0-0.2,0.1-0.3
	c0.1-0.1,0.2-0.1,0.3-0.1c0.1,0,0.2,0,0.3,0.1l1.2,1.2H203.4z M197.6,396l-0.1-0.3c0-0.2-0.1-0.3-0.1-0.5l0-0.1l-0.1,0
	c-0.4-0.2-0.8-0.5-1.1-0.9L196,394l-0.2,0.1c-0.6,0.4-1,1-1.1,1.6l0,0.2H197.6z M200,386.9c-0.1,0-0.3,0-0.4,0
	c-0.6,0.1-1.1,0.4-1.4,0.9s-0.5,1.1-0.4,1.6c0,0.1,0.1,0.2,0.1,0.4c0.1,0.2,0,0.5-0.2,0.6c-0.9,0.4-1.4,1.4-1.2,2.4
	c0.1,0.4,0.2,0.8,0.5,1.1l0.3,0.3l0.1-0.4c0.1-0.4,0.2-0.8,0.3-1.1c0-0.1,0.1-0.1,0.1-0.2c0.1-0.1,0.1-0.1,0.2-0.1
	c0.6-0.2,1.2-0.3,1.8-0.3c1,0,1.9,0.3,2.7,0.8l0.2,0.1l0.1-0.2c0.1-0.3,0.5-0.6,0.8-0.6h3.9l0-0.2c0.1-0.6,0.3-1.1,0.7-1.6l0.1-0.1
	l-0.1-0.1c-0.3-0.7-1-1.2-1.8-1.3c-0.2,0-0.4-0.2-0.4-0.5c0-0.1,0-0.3,0-0.4c-0.2-1-1.1-1.8-2.2-1.8c-0.1,0-0.3,0-0.4,0
	c-0.6,0.1-1.1,0.4-1.5,1c-0.1,0.1-0.2,0.2-0.3,0.2l-0.1,0l-0.2-0.1l0,0C201,387,200.5,386.9,200,386.9z M194.7,394L194.7,394
	c0.3-0.3,0.6-0.5,0.9-0.7l0.1-0.1l0-0.1c0-0.1,0-0.1,0-0.2c-0.2-1.2,0.3-2.4,1.3-3.1l0.1-0.1v-0.2c-0.2-1,0.2-2,0.9-2.7l0.1-0.1
	v-0.9h-1.4c-0.3,0-0.5-0.2-0.5-0.5s0.2-0.5,0.5-0.5h1.4v-1.5c0-1.1-0.9-2-2-2h-5.6c-1.1,0-2,0.9-2,2v1.5h4.4c0.3,0,0.5,0.2,0.5,0.5
	s-0.2,0.5-0.5,0.5h-4.4v8.1H194.7z M218.6,392.8c0.1,0,0.2,0.1,0.2,0.1l0.1,0l0.1-0.1c0.5-0.5,1.1-0.8,1.8-1.1l0.1,0l0-0.1
	c0-0.7-0.3-1.3-0.7-1.7c-0.4-0.4-1-0.7-1.6-0.7c-0.8,0-1.5,0.4-2,1.1l-0.1,0.2l0.2,0.1c0.9,0.4,1.5,1.2,1.7,2.1l0,0.1L218.6,392.8z
	 M213,392.1l-0.1-0.3c-0.3-1-1.2-1.7-2.3-1.7s-2,0.7-2.3,1.7l-0.1,0.3H213z M213.1,390.2c0.2,0.2,0.3,0.4,0.5,0.6l0.1,0.2l0.2-0.2
	c0.4-0.3,0.8-0.5,1.3-0.6c0.1,0,0.2,0,0.3,0l0.1,0l0-0.1c0.2-0.4,0.5-0.8,0.8-1.1l0,0l0,0c0.5-1,0.5-2.1,0.2-3.2l0-0.1l-0.1,0
	c-0.4-0.1-0.9-0.2-1.4-0.2c-1.1,0-2.2,0.4-3,1.3c-0.6,0.6-1,1.4-1.2,2.2l0,0.2l0.2,0c0.3,0,0.6,0.1,0.9,0.3l0.1,0.1l1.7-1.7
	c0.1-0.1,0.2-0.1,0.3-0.1c0.1,0,0.2,0,0.3,0.1c0.2,0.2,0.2,0.5,0,0.6l-1.6,1.6L213.1,390.2z M207,388c0.8,0.2,1.5,0.7,1.9,1.4
	l0.1,0.2l0.2-0.1c0.2-0.1,0.5-0.2,0.7-0.3l0.1,0l0-0.1c0-0.2,0.1-0.4,0.1-0.5l0.1-0.2h-1c-0.3,0-0.5-0.2-0.5-0.5s0.2-0.5,0.5-0.5h1
	l0.3,0.2l0.2-0.2c0.2-0.4,0.5-0.8,0.8-1.1l0.1-0.1l0-0.1c-0.2-0.9-0.7-1.7-1.3-2.4l-0.1-0.2l-3.4,3.4l0.1,0.1
	c0.1,0.2,0.2,0.5,0.2,0.7l0,0.2L207,388z M194.9,380.6v-1.8h-3.5v1.8H194.9z M195.8,377.9v-3.1h-5.3v3.1H195.8z"/>
<linearGradient id="SVGID_2_" gradientUnits="userSpaceOnUse" x1="185.6726" y1="393.6816" x2="229.2746" y2="393.6816">
	<stop  offset="0" style="stop-color:#00ED7E"/>
	<stop  offset="1" style="stop-color:#00AA7E"/>
</linearGradient>
<path class="st1" d="M192.2,413.2c-3.6,0-6.5-2.7-6.5-6c0-1.6,0.7-3.1,2-4.3l0.2-0.1v-19.3c0-1.4,1.1-2.6,2.5-2.6l0.5,0v-2.3
	l-0.4-0.1c-0.3,0-0.5-0.3-0.5-0.6v-3.1c0-0.3,0.3-0.6,0.6-0.6h5.3c0.3,0,0.6,0.3,0.6,0.6v3.1c0,0.3-0.2,0.5-0.5,0.6l-0.4,0.1v2.3
	l0.5,0c1.4,0,2.5,1.2,2.5,2.6v3.1l0.7-0.2c0.1,0,0.2-0.1,0.4-0.1c0.2,0,0.3,0,0.5,0c0.4,0,0.8,0.1,1.2,0.3l0.3,0.2l0.3-0.3
	c0.4-0.4,0.9-0.7,1.5-0.8c0.2,0,0.3,0,0.5,0c0.7,0,1.3,0.3,1.9,0.7l0.4,0.3l3.5-3.5c0.1-0.1,0.3-0.2,0.4-0.2s0.3,0.1,0.4,0.2
	c0.6,0.6,1.1,1.4,1.4,2.3l0.2,0.6l0.5-0.3c0.8-0.5,1.7-0.8,2.6-0.8c0.6,0,1.2,0.1,1.8,0.3c0,0,0.1,0,0.1,0.1c0,0,0.1,0.1,0.1,0.1
	c0.3,0.8,0.4,1.7,0.3,2.6l-0.1,0.7l0.7-0.2c0.2,0,0.4-0.1,0.6-0.1c1.6,0,2.9,1.2,2.9,2.8l0,0.5l0.7,0c0.6,0,1.1,0.1,1.7,0.3
	c0,0,0.1,0,0.1,0.1c0,0,0,0.1,0.1,0.1c0.4,1.1,0.4,2.3,0,3.4l-0.2,0.5l0.4,0.2c0.2,0.1,0.4,0.3,0.4,0.5c0,1-0.1,1.9-0.3,2.9
	l-0.1,0.7l0.7-0.1c0,0,0.1,0,0.1,0c0.1,0,0.1,0,0.2,0c0.2,0.1,0.4,0.2,0.5,0.3l0.5,0.8c0,0.1,0.1,0.1,0.1,0.2
	c0.1,0.3-0.1,0.6-0.3,0.7l-1.6,1l0.4,0.9l3.5-0.6c0,0,0.1,0,0.1,0c0.4,0,0.7,0.3,0.7,0.6l0.2,0.9c0,0.2,0,0.4-0.1,0.6
	s-0.3,0.3-0.5,0.3l-3.5,0.6l0,1l1.8,0.4c0.3,0.1,0.5,0.3,0.6,0.6c0,0.1,0,0.2,0,0.2l-0.1,1c0,0.2-0.1,0.4-0.3,0.5
	c-0.1,0.1-0.3,0.1-0.4,0.1c0,0-0.1,0-0.1,0l-5.9-1.1l0.1,0.7c0.1,0.7-0.1,1.4-0.5,2c-0.5,0.6-1.2,0.9-1.9,0.9L192.2,413.2z
	 M189.2,402.2c-2,1-3.2,2.9-3.2,5c0,3.1,2.8,5.7,6.2,5.7h4.8l-0.5-0.8c-0.2-0.3-0.3-0.6-0.4-0.9l0-0.1c-0.2-1.2,0.4-2.3,1.6-2.8
	l5-1.9l-0.1-0.4c-0.4-1.6-1.5-2.9-3.1-3.7l-0.3-0.1l-0.2,0.2c-0.2,0.1-0.4,0.2-0.6,0.3l-0.6,0.2l0.3,0.5c0.1,0.2,0.1,0.3,0.2,0.4
	c0,0.2,0,0.3-0.1,0.4c-0.2,0.2-0.4,0.3-0.8,0.3c-0.6,0-1.4-0.3-2.2-0.7c-0.2-0.1-0.3-0.2-0.5-0.3l-0.3-0.2l-0.3,0.2
	c-0.2,0.1-0.3,0.2-0.5,0.3c-0.7,0.4-1.6,0.7-2.2,0.7c-0.4,0-0.6-0.1-0.8-0.3c0,0-0.1-0.1-0.1-0.1c0,0,0.8,0.1,0.8,0.1
	c0.6,0,1.4-0.2,2.1-0.6c0.3-0.2,0.6-0.4,0.8-0.6c0,0,0.1,0,0.1,0s0.1,0,0.1,0c0.2,0.2,0.5,0.4,0.8,0.6c0.7,0.4,1.5,0.6,2,0.6
	l0.8-0.1l-0.4-0.7c-0.1-0.2-0.3-0.4-0.6-0.6c0,0-0.1-0.1-0.1-0.2c0-0.1,0.1-0.1,0.1-0.1c0.6-0.1,1.1-0.2,1.4-0.4l0.6-0.4l0,0.1
	l0.2,0.1c1.6,0.8,2.8,2.2,3.2,3.8l0.1,0.5l2.3-0.9c0,0,0,0,0,0c0.1,0,0.1,0,0.2,0.1c0,0.1,0,0.1,0,0.1c0,0,0,0.1-0.1,0.1l-4.2,1.6
	l0.3,1.7c0,0.1,0,0.2-0.1,0.2c0,0,0,0,0,0c-0.1,0-0.2,0-0.2-0.1l-0.3-1.6l-3.1,1.2c-1,0.4-1.6,1.4-1.4,2.4l0,0.1
	c0.2,1,1.1,1.8,2.2,1.8l8.2,0l-0.5-2.5c0-0.1,0-0.2,0.1-0.2c0,0,0,0,0,0c0.1,0,0.2,0,0.2,0.1l0.5,2.5l6.2,0l-0.4-1.9
	c0-0.1,0-0.2,0.1-0.2c0,0,0,0,0,0c0.1,0,0.2,0,0.2,0.1l0.4,2l3.3,0l-0.5-2.7c0-0.1,0-0.2,0.1-0.2c0,0,0,0,0,0c0.1,0,0.2,0.1,0.2,0.1
	l0.5,2.7h1.1c0.7,0,1.3-0.3,1.7-0.8s0.6-1.2,0.5-1.8l-1.3-7.1c-0.1-0.6-0.5-1.2-1.1-1.5c-0.3-0.2-0.7-0.3-1.1-0.3
	c-0.3,0-0.5,0-0.8,0.1l-5.5,2.1l0.4,2.3c0,0.1,0,0.2-0.1,0.2c0,0,0,0,0,0c-0.1,0-0.2,0-0.2-0.1l-0.4-2.2l-1.5,0.6c0,0,0,0,0,0
	c-0.1,0-0.1,0-0.2-0.1c0-0.1,0-0.2,0.1-0.2l7.3-2.8c0.3-0.1,0.6-0.2,0.9-0.2c0.4,0,0.8,0.1,1.2,0.3c0.6,0.3,1,0.8,1.2,1.5l0.2,0.6
	l4.3-2.5l0.1-0.2c0.3-1.2,0.5-2.4,0.5-3.6l0-0.5h-5.6c-0.1,0-0.2-0.1-0.2-0.2s0.1-0.2,0.2-0.2h1.1l0.1-0.4c0-0.3,0.1-0.5,0-0.8
	c-0.2-1-1-1.8-2-1.8c-0.1,0-0.1-0.1-0.1-0.2c0-0.1,0-0.3,0-0.4c-0.2-1.1-1.1-1.9-2.2-1.9c-0.1,0-0.3,0-0.4,0
	c-0.4,0.1-0.8,0.3-1.1,0.6l-0.7,0.7l-0.1-0.5c-0.3-1.2-1.4-2-2.5-2s-2.2,0.8-2.5,2l-0.2,0.6h5.4l0-0.1l1,0.1c0.3,0,0.6,0.3,0.6,0.6
	c0,0.9-0.2,1.8-0.6,2.6l-0.3,0.7h1.1c0.1,0,0.2,0.1,0.2,0.2s-0.1,0.2-0.2,0.2h-21.8l0,0.5c0,0.7,0.1,1.4,0.2,2.1l0.1,0.9l0.7-0.5
	c0,0,0.1,0,0.1,0c0.1,0,0.2,0.1,0.2,0.1v1l0.6-0.1c0.4-0.1,0.9-0.2,1.4-0.2c0.7,0,1.4,0.1,1.9,0.3c0.5,0.2,0.8,0.5,0.9,0.8l0,0.1
	l-0.6-0.4c-0.2-0.1-0.9-0.5-2.2-0.5c-0.8,0-1.6,0.2-2.1,0.4h-0.1c-0.5-0.3-1.3-0.4-2.1-0.4c-1.3,0-1.9,0.3-2.2,0.5l-0.6,0.4l0-0.1
	c0-0.3,0.4-0.6,0.9-0.8s1.2-0.3,1.9-0.3c0.2,0,0.4,0,0.5,0l0.7,0.1l-0.1-0.6c-0.2-1-0.3-2-0.3-3c0-0.3,0.3-0.6,0.6-0.6h0.6l0-0.5
	c0-0.2,0.1-0.4,0.1-0.6l0.2-0.7h-6.4v7.8l0.7-0.4l0.5-0.3l0-0.1l0.6,0.4c0.3,0.2,0.8,0.4,1.4,0.4c0.1,0,0.1,0.1,0.1,0.1
	c0,0.1,0,0.1-0.1,0.2c-0.2,0.2-0.4,0.4-0.6,0.6l-0.5,0.7c0-0.1,0-0.2,0-0.2c0-0.1,0.1-0.3,0.2-0.4l0.3-0.5l-0.6-0.2
	c-0.2-0.1-0.5-0.2-0.6-0.3l-0.2-0.2L189.2,402.2z M219.6,403.8l1,5.4l6.5,1.2l0.3-1.8l-5.3-1.2c-0.1,0-0.1-0.1-0.1-0.2
	c0-0.1,0.1-0.1,0.1-0.1l7-1.3l-0.3-1.8c0,0-7,1.3-7,1.3c-0.1,0-0.1,0-0.2-0.1c0-0.1,0-0.1,0.1-0.2l4.5-3l-0.9-1.6L219.6,403.8z
	 M221.5,394.6c0,0,0.1,0,0.1,0c0.1,0.1,0.1,0.2,0,0.2l-1.4,1.4h3.3l0.1-0.3c0.6-1,0.7-2.3,0.4-3.4l-0.1-0.2l-0.2-0.1
	c-0.4-0.1-0.9-0.2-1.3-0.2c-1,0-1.8,0.3-2.6,0.9l-0.4,0.3l0.4,0.4c0.3,0.3,0.5,0.6,0.6,1l0.2,0.8l0.9-0.9
	C221.4,394.6,221.4,394.6,221.5,394.6z M210.7,395.3c0,0,0.1,0,0.1,0l0.6,0.6l0.1,0.3l0.3,0h1.7l0.1-0.2c0.6-0.9,0.9-1.9,0.9-2.9
	l0-0.5h-11.4l0,0.5c0,1,0.4,2,0.9,2.9l0.1,0.2h1.9l0.1-0.3l0.6-0.7c0,0,0.1,0,0.1,0c0,0,0.1,0,0.1,0c0.1,0.1,0.1,0.1,0,0.2l-0.5,0.8
	h1.9l0.1-0.3c0,0,0.1-0.1,0.1-0.1c0.1,0,0.1,0.1,0.1,0.1l0.1,0.3h1.8l-0.5-0.8c0,0,0-0.1,0-0.2C210.6,395.3,210.7,395.3,210.7,395.3
	z M200.6,395c0,0,0.1,0,0.1,0l1.2,1.2h2l-0.3-0.7c-0.2-0.4-0.4-0.9-0.5-1.3l0-0.1l-0.1-0.1c-0.1-0.1-0.2-0.2-0.3-0.3
	c-0.8-0.8-1.8-1.2-3-1.2c-0.4,0-0.9,0.1-1.3,0.2l-0.2,0.1l-0.1,0.2c-0.3,1-0.3,2,0.1,3l0.1,0.3h3.1l-1-1c-0.1-0.1-0.1-0.2,0-0.2
	C200.5,395,200.5,395,200.6,395z M195.7,393.9c-0.7,0.4-1.1,1.1-1.2,1.8l-0.1,0.6h3.6l-0.2-0.6c0-0.1-0.1-0.3-0.1-0.5l0-0.2
	l-0.2-0.1c-0.4-0.2-0.7-0.5-1-0.8l-0.3-0.4L195.7,393.9z M200,386.6c-0.1,0-0.3,0-0.4,0c-1.4,0.2-2.3,1.5-2,2.9
	c0,0.1,0.1,0.3,0.1,0.4c0,0.1,0,0.2-0.1,0.2c-1,0.5-1.6,1.6-1.4,2.7c0.1,0.5,0.3,0.9,0.6,1.2l0.7,0.8l0.1-1.1c0-0.4,0.1-0.7,0.3-1
	c0,0,0-0.1,0.1-0.1c0,0,0.1,0,0.1-0.1c0.5-0.2,1.1-0.3,1.7-0.3c0.9,0,1.8,0.3,2.5,0.8l0.5,0.3l0.2-0.6c0.1-0.2,0.3-0.4,0.6-0.4h4.2
	l0.1-0.4c0.1-0.5,0.3-1,0.6-1.4l0.2-0.2l-0.1-0.3c-0.4-0.8-1.2-1.4-2.1-1.5c-0.1,0-0.1-0.1-0.1-0.2c0-0.1,0-0.3,0-0.4
	c-0.2-1.2-1.2-2.1-2.4-2.1c-0.1,0-0.3,0-0.4,0c-0.7,0.1-1.3,0.5-1.7,1.1c0,0-0.1,0.1-0.1,0.1l-0.1,0
	C201.1,386.7,200.6,386.6,200,386.6z M188.1,394.3h6.7l0.1-0.2c0.2-0.2,0.5-0.4,0.7-0.6l0.3-0.2l-0.1-0.4c0-0.1,0-0.1,0-0.2
	c-0.2-1.1,0.3-2.2,1.2-2.8l0.2-0.1v-0.3l0-0.1c-0.2-0.9,0.1-1.8,0.8-2.5l0.2-0.1v-1.3h-1.7c-0.1,0-0.2-0.1-0.2-0.2s0.1-0.2,0.2-0.2
	h1.7v-1.8c0-1.3-1-2.3-2.3-2.3h-5.6c-1.3,0-2.3,1-2.3,2.3v1.8h4.7c0.1,0,0.2,0.1,0.2,0.2s-0.1,0.2-0.2,0.2h-4.7V394.3z M218.6,388.8
	c-0.9,0-1.7,0.5-2.2,1.2l-0.3,0.5l0.6,0.2c0.8,0.3,1.4,1,1.5,1.9l0.1,0.3l0.3,0.1c0.1,0,0.1,0,0.2,0.1l0.3,0.1l0.2-0.2
	c0.5-0.5,1.1-0.8,1.7-1l0.3-0.1l0-0.3C221.2,390,220.1,388.8,218.6,388.8z M214.3,388c0,0,0.1,0,0.1,0c0.1,0.1,0.1,0.2,0,0.2
	l-1.8,1.8l0.3,0.4c0.2,0.2,0.3,0.4,0.4,0.6l0.3,0.5l0.5-0.4c0.3-0.3,0.7-0.5,1.2-0.5c0.1,0,0.2,0,0.3,0l0.3,0l0.1-0.3
	c0.2-0.4,0.4-0.7,0.7-1l0.1-0.1l0-0.1c0.5-1.1,0.6-2.3,0.2-3.4l-0.1-0.2l-0.2-0.1c-0.5-0.2-1-0.2-1.5-0.2c-1.2,0-2.4,0.5-3.2,1.3
	c-0.6,0.6-1.1,1.5-1.3,2.4l-0.1,0.5l0.5,0.1c0.3,0,0.6,0.1,0.9,0.3l0.3,0.2l1.9-1.9C214.2,388,214.2,388,214.3,388z M206.6,388.2
	l0.4,0.1c0.7,0.2,1.3,0.7,1.7,1.3l0.2,0.4l0.4-0.2c0.2-0.1,0.4-0.2,0.6-0.2l0.3-0.1l0-0.3c0-0.2,0.1-0.3,0.1-0.5l0.1-0.6h-1.4
	c-0.1,0-0.2-0.1-0.2-0.2s0.1-0.2,0.2-0.2h0.9l0.5,0.3l0.3-0.5c0.2-0.4,0.5-0.8,0.8-1.1l0.2-0.2l-0.1-0.3c-0.2-0.9-0.7-1.8-1.4-2.5
	l-0.4-0.4l-3.8,3.8l0.1,0.3c0.1,0.2,0.2,0.4,0.2,0.7V388.2z M191.1,380.9h4.1v-2.4h-4.1V380.9z M190.2,378.2h5.9v-3.7h-5.9V378.2z"
	/>
</svg>
