<?xml version="1.0" encoding="utf-8"?>
<!-- Generator: Adobe Illustrator 23.0.2, SVG Export Plug-In . SVG Version: 6.00 Build 0)  -->
<svg version="1.1" id="Capa_1" xmlns="http://www.w3.org/2000/svg" xmlns:xlink="http://www.w3.org/1999/xlink" x="0px" y="0px"
	 viewBox="191.5 376.8 31 39.5" style="enable-background:new 191.5 376.8 31 39.5;" xml:space="preserve">
<style type="text/css">
	.st0{fill:url(#SVGID_1_);}
	.st1{fill:url(#SVGID_2_);}
	.st2{fill:url(#SVGID_3_);}
	.st3{fill:url(#SVGID_4_);}
	.st4{fill:url(#SVGID_5_);}
	.st5{fill:url(#SVGID_6_);}
	.st6{fill:url(#SVGID_7_);}
	.st7{fill:url(#SVGID_8_);}
</style>
<linearGradient id="SVGID_1_" gradientUnits="userSpaceOnUse" x1="217.9761" y1="390.315" x2="222.4877" y2="390.315">
	<stop  offset="0" style="stop-color:#00ED7E"/>
	<stop  offset="1" style="stop-color:#00AA7E"/>
</linearGradient>
<path class="st0" d="M221.9,389.7h-3.4c-0.3,0-0.6,0.3-0.6,0.6c0,0.3,0.3,0.6,0.6,0.6h3.4c0.3,0,0.6-0.3,0.6-0.6
	C222.5,390,222.2,389.7,221.9,389.7L221.9,389.7z M221.9,389.7"/>
<linearGradient id="SVGID_2_" gradientUnits="userSpaceOnUse" x1="217.9761" y1="385.628" x2="220.6559" y2="385.628">
	<stop  offset="0" style="stop-color:#00ED7E"/>
	<stop  offset="1" style="stop-color:#00AA7E"/>
</linearGradient>
<path class="st1" d="M218.6,386.2h1.5c0.3,0,0.6-0.3,0.6-0.6c0-0.3-0.3-0.6-0.6-0.6h-1.5c-0.3,0-0.6,0.3-0.6,0.6
	C218,385.9,218.2,386.2,218.6,386.2L218.6,386.2z M218.6,386.2"/>
<linearGradient id="SVGID_3_" gradientUnits="userSpaceOnUse" x1="217.9761" y1="380.9407" x2="221.1959" y2="380.9407">
	<stop  offset="0" style="stop-color:#00ED7E"/>
	<stop  offset="1" style="stop-color:#00AA7E"/>
</linearGradient>
<path class="st2" d="M218.6,381.5h2.1c0.3,0,0.6-0.3,0.6-0.6c0-0.3-0.3-0.6-0.6-0.6h-2.1c-0.3,0-0.6,0.3-0.6,0.6
	C218,381.3,218.2,381.5,218.6,381.5L218.6,381.5z M218.6,381.5"/>
<linearGradient id="SVGID_4_" gradientUnits="userSpaceOnUse" x1="217.9761" y1="399.6891" x2="221.1959" y2="399.6891">
	<stop  offset="0" style="stop-color:#00ED7E"/>
	<stop  offset="1" style="stop-color:#00AA7E"/>
</linearGradient>
<path class="st3" d="M220.6,399.1h-2.1c-0.3,0-0.6,0.3-0.6,0.6c0,0.3,0.3,0.6,0.6,0.6h2.1c0.3,0,0.6-0.3,0.6-0.6
	C221.2,399.4,220.9,399.1,220.6,399.1L220.6,399.1z M220.6,399.1"/>
<linearGradient id="SVGID_5_" gradientUnits="userSpaceOnUse" x1="217.9761" y1="395.0019" x2="220.6559" y2="395.0019">
	<stop  offset="0" style="stop-color:#00ED7E"/>
	<stop  offset="1" style="stop-color:#00AA7E"/>
</linearGradient>
<path class="st4" d="M218.6,395.6h1.5c0.3,0,0.6-0.3,0.6-0.6c0-0.3-0.3-0.6-0.6-0.6h-1.5c-0.3,0-0.6,0.3-0.6,0.6
	C218,395.3,218.2,395.6,218.6,395.6L218.6,395.6z M218.6,395.6"/>
<linearGradient id="SVGID_6_" gradientUnits="userSpaceOnUse" x1="191.5122" y1="386.4904" x2="203.161" y2="386.4904">
	<stop  offset="0" style="stop-color:#00ED7E"/>
	<stop  offset="1" style="stop-color:#00AA7E"/>
</linearGradient>
<path class="st5" d="M201.3,389.4c1,0.5,1,0.6,1.3,0.6c0.6,0,0.8-0.8,0.3-1.1l-1-0.6l0.7-0.3c0.3-0.1,0.4-0.5,0.3-0.8
	c-0.1-0.3-0.5-0.4-0.8-0.3l-1.6,0.6l-2.1-1.2l2.1-1.2c1.6,0.6,1.6,0.7,1.8,0.7c0.6,0,0.8-0.9,0.2-1.1l-0.7-0.3l1-0.6
	c0.3-0.2,0.4-0.5,0.2-0.8c-0.2-0.3-0.5-0.4-0.8-0.2l-1,0.6l0.1-0.8c0.1-0.3-0.2-0.6-0.5-0.7c-0.3-0.1-0.6,0.2-0.7,0.5l-0.3,1.7
	l-2.1,1.2v-2.4l1.3-1.1c0.2-0.2,0.3-0.6,0.1-0.8c-0.2-0.2-0.6-0.3-0.8-0.1l-0.6,0.5v-1.1c0-0.3-0.3-0.6-0.6-0.6
	c-0.3,0-0.6,0.3-0.6,0.6v1.1l-0.6-0.5c-0.2-0.2-0.6-0.2-0.8,0.1c-0.2,0.3-0.2,0.6,0.1,0.8l1.3,1.1v2.4l-2.1-1.2l-0.3-1.7
	c-0.1-0.3-0.3-0.5-0.7-0.5c-0.3,0.1-0.5,0.3-0.5,0.7l0.1,0.8l-1-0.6c-0.3-0.2-0.6-0.1-0.8,0.2c-0.2,0.3-0.1,0.6,0.2,0.8l1,0.6
	l-0.7,0.3c-0.3,0.1-0.4,0.5-0.3,0.8c0.1,0.3,0.5,0.4,0.8,0.3l1.6-0.6l2.1,1.2l-2.1,1.2l-1.6-0.6c-0.3-0.1-0.6,0-0.8,0.3
	c-0.1,0.3,0,0.6,0.3,0.8l0.7,0.3l-1,0.6c-0.5,0.3-0.3,1.1,0.3,1.1c0.3,0,0.3-0.1,1.3-0.6l-0.1,0.8c-0.1,0.4,0.2,0.7,0.6,0.7
	c0.3,0,0.5-0.2,0.6-0.5l0.3-1.7l2.1-1.2v2.4l-1.3,1.1c-0.3,0.2-0.3,0.6-0.1,0.8c0.2,0.3,0.6,0.3,0.8,0.1l0.6-0.5v1.1
	c0,0.3,0.3,0.6,0.6,0.6c0.3,0,0.6-0.3,0.6-0.6v-1.1c0.5,0.4,0.6,0.6,1,0.6c0.5,0,0.8-0.7,0.4-1l-1.3-1.1v-2.4l2.1,1.2l0.3,1.7
	c0,0.3,0.3,0.5,0.6,0.5c0.4,0,0.6-0.3,0.6-0.7L201.3,389.4z M201.3,389.4"/>
<linearGradient id="SVGID_7_" gradientUnits="userSpaceOnUse" x1="202.1403" y1="396.5654" x2="219.4857" y2="396.5654">
	<stop  offset="0" style="stop-color:#00ED7E"/>
	<stop  offset="1" style="stop-color:#00AA7E"/>
</linearGradient>
<path class="st6" d="M216,400.7v-18.7c0-2.9-2.3-5.2-5.2-5.2c-2.9,0-5.2,2.3-5.2,5.2v18.7c-2.2,1.6-3.4,4.2-3.4,6.9
	c0,4.8,3.9,8.7,8.7,8.7c4.8,0,8.7-3.9,8.7-8.7C219.5,404.9,218.2,402.4,216,400.7L216,400.7z M210.8,415.1c-4.1,0-7.5-3.4-7.5-7.5
	c0-2.4,1.2-4.7,3.2-6.2c0.2-0.1,0.2-0.3,0.2-0.5v-19c0-2.2,1.8-4.1,4.1-4.1c2.2,0,4.1,1.8,4.1,4.1v19c0,0.2,0.1,0.4,0.2,0.5
	c2,1.4,3.2,3.7,3.2,6.2C218.3,411.8,215,415.1,210.8,415.1L210.8,415.1z M210.8,415.1"/>
<linearGradient id="SVGID_8_" gradientUnits="userSpaceOnUse" x1="204.6444" y1="396.5895" x2="216.9813" y2="396.5895">
	<stop  offset="0" style="stop-color:#00ED7E"/>
	<stop  offset="1" style="stop-color:#00AA7E"/>
</linearGradient>
<path class="st7" d="M213.3,401.9v-19.8c0-1.4-1.1-2.5-2.5-2.5c-1.4,0-2.5,1.1-2.5,2.5v1.8c0,0.3,0.3,0.6,0.6,0.6
	c0.3,0,0.6-0.3,0.6-0.6v-1.8c0-0.8,0.6-1.4,1.4-1.4c0.8,0,1.4,0.6,1.4,1.4v17.1h-2.7v-13c0-0.3-0.3-0.6-0.6-0.6
	c-0.3,0-0.6,0.3-0.6,0.6v15.7c-2.2,1-3.6,3.2-3.6,5.6c0,3.4,2.8,6.2,6.2,6.2c3.4,0,6.2-2.8,6.2-6.2
	C217,405.1,215.5,402.8,213.3,401.9L213.3,401.9z M210.8,412.5c-2.8,0-5-2.2-5-5c0-2.1,1.3-4,3.3-4.7c0.2-0.1,0.4-0.3,0.4-0.5v-1.9
	h2.7v1.9c0,0.2,0.2,0.5,0.4,0.5c2,0.7,3.3,2.6,3.3,4.7C215.8,410.2,213.6,412.5,210.8,412.5L210.8,412.5z M210.8,412.5"/>
</svg>
