<?xml version="1.0" encoding="utf-8"?>
<!-- Generator: Adobe Illustrator 23.0.2, SVG Export Plug-In . SVG Version: 6.00 Build 0)  -->
<svg version="1.1" id="Capa_1" xmlns="http://www.w3.org/2000/svg" xmlns:xlink="http://www.w3.org/1999/xlink" x="0px" y="0px"
	 viewBox="187.8 383.9 38.4 26.2" style="enable-background:new 187.8 383.9 38.4 26.2;" xml:space="preserve">
<style type="text/css">
	.st0{fill:url(#SVGID_1_);}
	.st1{fill:url(#SVGID_2_);}
	.st2{fill:url(#SVGID_3_);}
	.st3{fill:url(#SVGID_4_);}
	.st4{fill:url(#SVGID_5_);}
	.st5{fill:url(#SVGID_6_);}
	.st6{fill:url(#SVGID_7_);}
	.st7{fill:url(#SVGID_8_);}
	.st8{fill:url(#SVGID_9_);}
	.st9{fill:url(#SVGID_10_);}
	.st10{fill:url(#SVGID_11_);}
	.st11{fill:url(#SVGID_12_);}
	.st12{fill:url(#SVGID_13_);}
	.st13{fill:url(#SVGID_14_);}
	.st14{fill:url(#SVGID_15_);}
	.st15{fill:url(#SVGID_16_);}
	.st16{fill:url(#SVGID_17_);}
	.st17{fill:url(#SVGID_18_);}
	.st18{fill:url(#SVGID_19_);}
	.st19{fill:url(#SVGID_20_);}
	.st20{fill:url(#SVGID_21_);}
	.st21{fill:url(#SVGID_22_);}
	.st22{fill:url(#SVGID_23_);}
	.st23{fill:url(#SVGID_24_);}
	.st24{fill:url(#SVGID_25_);}
	.st25{fill:url(#SVGID_26_);}
	.st26{fill:url(#SVGID_27_);}
	.st27{fill:url(#SVGID_28_);}
	.st28{fill:url(#SVGID_29_);}
	.st29{fill:url(#SVGID_30_);}
	.st30{fill:url(#SVGID_31_);}
	.st31{fill:url(#SVGID_32_);}
</style>
<linearGradient id="SVGID_1_" gradientUnits="userSpaceOnUse" x1="187.8042" y1="392.5381" x2="226.1953" y2="392.5381">
	<stop  offset="0" style="stop-color:#00ED7E"/>
	<stop  offset="1" style="stop-color:#00AA7E"/>
</linearGradient>
<path class="st0" d="M198.2,401.2v-0.9h23v-1.2h-3.9v-0.9h3.9v-1.2h-28.4v1.2h23v0.9h-23v1.2h3.9v0.9h-6.3c-1.4,0-2.6-1.2-2.6-2.6
	v-12.1c0-1.4,1.2-2.6,2.6-2.6h4.6v0.9h-4.6c-0.9,0-1.7,0.8-1.7,1.7v12.1c0,0.9,0.8,1.7,1.7,1.7h1.5v-4.2l30.2-0.1l0.1,4.3h1.5
	c0.9,0,1.7-0.8,1.7-1.7v-12.1c0-0.9-0.8-1.7-1.7-1.7h-27.1v-0.9h27.1c1.4,0,2.6,1.2,2.6,2.6v12.1c0,1.4-1.2,2.6-2.6,2.6H198.2z"/>
<linearGradient id="SVGID_2_" gradientUnits="userSpaceOnUse" x1="187.9043" y1="392.5381" x2="226.0957" y2="392.5381">
	<stop  offset="0" style="stop-color:#00ED7E"/>
	<stop  offset="1" style="stop-color:#00AA7E"/>
</linearGradient>
<path class="st1" d="M198.3,401.1v-0.7h23V399h-3.9v-0.7h3.9v-1.4h-28.6v1.4h23v0.7h-23v1.4h3.9v0.7h-6.2c-1.4,0-2.5-1.1-2.5-2.5
	v-12.1c0-1.4,1.1-2.5,2.5-2.5h4.5v0.7h-4.5c-1,0-1.8,0.8-1.8,1.8v12.1c0,1,0.8,1.8,1.8,1.8h1.6v-4.2l30-0.1l0.1,4.1v0.2h1.6
	c1,0,1.8-0.8,1.8-1.8v-12.1c0-1-0.8-1.8-1.8-1.8h-27V384h27c1.4,0,2.5,1.1,2.5,2.5v12.1c0,1.4-1.1,2.5-2.5,2.5H198.3z"/>
<linearGradient id="SVGID_3_" gradientUnits="userSpaceOnUse" x1="188.104" y1="392.5376" x2="225.8955" y2="392.5376">
	<stop  offset="0" style="stop-color:#00ED7E"/>
	<stop  offset="1" style="stop-color:#00AA7E"/>
</linearGradient>
<path class="st2" d="M198.5,400.9v-0.3h23v-1.8h-3.9v-0.3h3.9v-1.8h-29v1.8h23v0.3h-23v1.8h3.9v0.3h-6c-1.3,0-2.3-1-2.3-2.3v-12.1
	c0-1.3,1-2.3,2.3-2.3h4.3v0.3h-4.3c-1.1,0-2,0.9-2,2v12.1c0,1.1,0.9,2,2,2h1.8v-4.2l29.6-0.1l0.1,3.9v0.4h1.8c1.1,0,2-0.9,2-2v-12.1
	c0-1.1-0.9-2-2-2h-26.8v-0.3h26.8c1.3,0,2.3,1,2.3,2.3v12.1c0,1.3-1,2.3-2.3,2.3H198.5z"/>
<linearGradient id="SVGID_4_" gradientUnits="userSpaceOnUse" x1="188.2041" y1="392.5381" x2="225.7959" y2="392.5381">
	<stop  offset="0" style="stop-color:#00ED7E"/>
	<stop  offset="1" style="stop-color:#00AA7E"/>
</linearGradient>
<path class="st3" d="M198.6,400.8v-0.1h23v-2h-3.9v-0.1h3.9v-2h-29.2v2h23v0.1h-23v2h3.9v0.1h-5.9c-1.2,0-2.2-1-2.2-2.2v-12.1
	c0-1.2,1-2.2,2.2-2.2h4.2v0.1h-4.2c-1.1,0-2.1,0.9-2.1,2.1v12.1c0,1.1,0.9,2.1,2.1,2.1h1.9v-4.2l29.4-0.1l0.1,3.8v0.5h1.9
	c1.1,0,2.1-0.9,2.1-2.1v-12.1c0-1.1-0.9-2.1-2.1-2.1h-26.7v-0.1h26.7c1.2,0,2.2,1,2.2,2.2v12.1c0,1.2-1,2.2-2.2,2.2H198.6z"/>
<linearGradient id="SVGID_5_" gradientUnits="userSpaceOnUse" x1="219.585" y1="387.834" x2="222.0596" y2="387.834">
	<stop  offset="0" style="stop-color:#00ED7E"/>
	<stop  offset="1" style="stop-color:#00AA7E"/>
</linearGradient>
<rect x="219.6" y="387.4" class="st4" width="2.5" height="0.9"/>
<linearGradient id="SVGID_6_" gradientUnits="userSpaceOnUse" x1="219.6846" y1="387.834" x2="221.96" y2="387.834">
	<stop  offset="0" style="stop-color:#00ED7E"/>
	<stop  offset="1" style="stop-color:#00AA7E"/>
</linearGradient>
<rect x="219.7" y="387.5" class="st5" width="2.3" height="0.7"/>
<linearGradient id="SVGID_7_" gradientUnits="userSpaceOnUse" x1="219.8848" y1="387.834" x2="221.7598" y2="387.834">
	<stop  offset="0" style="stop-color:#00ED7E"/>
	<stop  offset="1" style="stop-color:#00AA7E"/>
</linearGradient>
<rect x="219.9" y="387.7" class="st6" width="1.9" height="0.3"/>
<linearGradient id="SVGID_8_" gradientUnits="userSpaceOnUse" x1="219.9844" y1="387.834" x2="221.6602" y2="387.834">
	<stop  offset="0" style="stop-color:#00ED7E"/>
	<stop  offset="1" style="stop-color:#00AA7E"/>
</linearGradient>
<rect x="220" y="387.8" class="st7" width="1.7" height="0.1"/>
<linearGradient id="SVGID_9_" gradientUnits="userSpaceOnUse" x1="206.2769" y1="387.834" x2="217.7988" y2="387.834">
	<stop  offset="0" style="stop-color:#00ED7E"/>
	<stop  offset="1" style="stop-color:#00AA7E"/>
</linearGradient>
<rect x="206.3" y="387.4" class="st8" width="11.5" height="0.9"/>
<linearGradient id="SVGID_10_" gradientUnits="userSpaceOnUse" x1="206.377" y1="387.834" x2="217.6992" y2="387.834">
	<stop  offset="0" style="stop-color:#00ED7E"/>
	<stop  offset="1" style="stop-color:#00AA7E"/>
</linearGradient>
<rect x="206.4" y="387.5" class="st9" width="11.3" height="0.7"/>
<linearGradient id="SVGID_11_" gradientUnits="userSpaceOnUse" x1="206.5767" y1="387.834" x2="217.499" y2="387.834">
	<stop  offset="0" style="stop-color:#00ED7E"/>
	<stop  offset="1" style="stop-color:#00AA7E"/>
</linearGradient>
<rect x="206.6" y="387.7" class="st10" width="10.9" height="0.3"/>
<linearGradient id="SVGID_12_" gradientUnits="userSpaceOnUse" x1="206.6768" y1="387.834" x2="217.3994" y2="387.834">
	<stop  offset="0" style="stop-color:#00ED7E"/>
	<stop  offset="1" style="stop-color:#00AA7E"/>
</linearGradient>
<rect x="206.7" y="387.8" class="st11" width="10.7" height="0.1"/>
<linearGradient id="SVGID_13_" gradientUnits="userSpaceOnUse" x1="195.9229" y1="408.0352" x2="198.8267" y2="408.0352">
	<stop  offset="0" style="stop-color:#00ED7E"/>
	<stop  offset="1" style="stop-color:#00AA7E"/>
</linearGradient>
<path class="st12" d="M196.4,410.1l-0.2-0.2l-0.2-0.3l0.3-0.2c1.6-1.2,1.7-2.9,1.7-3V406h0.9v0.4c0,0.1,0,2.2-2,3.7l-0.2,0.1H196.4z
	"/>
<linearGradient id="SVGID_14_" gradientUnits="userSpaceOnUse" x1="196.0615" y1="408.0347" x2="198.7266" y2="408.0347">
	<stop  offset="0" style="stop-color:#00ED7E"/>
	<stop  offset="1" style="stop-color:#00AA7E"/>
</linearGradient>
<path class="st13" d="M196.4,410l-0.1-0.2l-0.2-0.2l0.2-0.2c1.7-1.3,1.7-3,1.7-3.1v-0.3h0.7v0.3c0,0.1,0,2.2-2,3.6l0,0l-0.1,0H196.4
	z"/>
<linearGradient id="SVGID_15_" gradientUnits="userSpaceOnUse" x1="196.3389" y1="408.0342" x2="198.5269" y2="408.0342">
	<stop  offset="0" style="stop-color:#00ED7E"/>
	<stop  offset="1" style="stop-color:#00AA7E"/>
</linearGradient>
<path class="st14" d="M196.5,409.8L196.5,409.8l-0.1-0.1l0.1-0.1c1.8-1.3,1.8-3.2,1.8-3.2v-0.1h0.3v0.1c0,0.1,0,2.1-1.9,3.4
	L196.5,409.8L196.5,409.8z"/>
<linearGradient id="SVGID_16_" gradientUnits="userSpaceOnUse" x1="196.4775" y1="408.0347" x2="198.4268" y2="408.0347">
	<stop  offset="0" style="stop-color:#00ED7E"/>
	<stop  offset="1" style="stop-color:#00AA7E"/>
</linearGradient>
<path class="st15" d="M196.5,409.7C196.5,409.7,196.5,409.7,196.5,409.7c1.7-1.4,1.8-3.3,1.8-3.3h0.1
	C198.4,406.4,198.4,408.4,196.5,409.7L196.5,409.7z"/>
<linearGradient id="SVGID_17_" gradientUnits="userSpaceOnUse" x1="201.9507" y1="408.0352" x2="202.8833" y2="408.0352">
	<stop  offset="0" style="stop-color:#00ED7E"/>
	<stop  offset="1" style="stop-color:#00AA7E"/>
</linearGradient>
<polygon class="st16" points="202,410.1 202,409.7 202,406 202.9,406 202.9,409.8 202.7,410 202.4,410.1 "/>
<linearGradient id="SVGID_18_" gradientUnits="userSpaceOnUse" x1="202.0508" y1="408.0347" x2="202.7832" y2="408.0347">
	<stop  offset="0" style="stop-color:#00ED7E"/>
	<stop  offset="1" style="stop-color:#00AA7E"/>
</linearGradient>
<polygon class="st17" points="202.1,410 202.1,409.6 202.1,406.1 202.8,406.1 202.8,409.8 202.6,409.9 202.4,410 "/>
<linearGradient id="SVGID_19_" gradientUnits="userSpaceOnUse" x1="202.2505" y1="408.0342" x2="202.5835" y2="408.0342">
	<stop  offset="0" style="stop-color:#00ED7E"/>
	<stop  offset="1" style="stop-color:#00AA7E"/>
</linearGradient>
<polygon class="st18" points="202.3,409.8 202.3,409.6 202.3,406.3 202.6,406.3 202.6,409.7 202.5,409.8 "/>
<linearGradient id="SVGID_20_" gradientUnits="userSpaceOnUse" x1="202.3506" y1="408.0347" x2="202.4834" y2="408.0347">
	<stop  offset="0" style="stop-color:#00ED7E"/>
	<stop  offset="1" style="stop-color:#00AA7E"/>
</linearGradient>
<path class="st19" d="M202.4,409.7C202.4,409.7,202.4,409.7,202.4,409.7l-0.1-3.3h0.1L202.4,409.7L202.4,409.7z"/>
<linearGradient id="SVGID_21_" gradientUnits="userSpaceOnUse" x1="206.6929" y1="408.0352" x2="207.6255" y2="408.0352">
	<stop  offset="0" style="stop-color:#00ED7E"/>
	<stop  offset="1" style="stop-color:#00AA7E"/>
</linearGradient>
<polygon class="st20" points="206.8,410.1 206.7,409.7 206.7,406 207.6,406 207.6,409.8 207.4,410 207.2,410.1 "/>
<linearGradient id="SVGID_22_" gradientUnits="userSpaceOnUse" x1="206.793" y1="408.0347" x2="207.5254" y2="408.0347">
	<stop  offset="0" style="stop-color:#00ED7E"/>
	<stop  offset="1" style="stop-color:#00AA7E"/>
</linearGradient>
<polygon class="st21" points="206.9,410 206.8,409.6 206.8,406.1 207.5,406.1 207.5,409.8 207.3,409.9 207.2,410 "/>
<linearGradient id="SVGID_23_" gradientUnits="userSpaceOnUse" x1="206.9927" y1="408.0342" x2="207.3257" y2="408.0342">
	<stop  offset="0" style="stop-color:#00ED7E"/>
	<stop  offset="1" style="stop-color:#00AA7E"/>
</linearGradient>
<polygon class="st22" points="207.1,409.8 207,409.6 207,406.3 207.3,406.3 207.3,409.7 207.2,409.8 "/>
<linearGradient id="SVGID_24_" gradientUnits="userSpaceOnUse" x1="207.0928" y1="408.0347" x2="207.2256" y2="408.0347">
	<stop  offset="0" style="stop-color:#00ED7E"/>
	<stop  offset="1" style="stop-color:#00AA7E"/>
</linearGradient>
<path class="st23" d="M207.2,409.7C207.1,409.7,207.1,409.7,207.2,409.7l-0.1-3.3h0.1L207.2,409.7L207.2,409.7z"/>
<linearGradient id="SVGID_25_" gradientUnits="userSpaceOnUse" x1="215.1729" y1="408.0273" x2="217.9736" y2="408.0273">
	<stop  offset="0" style="stop-color:#00ED7E"/>
	<stop  offset="1" style="stop-color:#00AA7E"/>
</linearGradient>
<path class="st24" d="M217.4,410.1l-0.2-0.1c-2-1.4-2-3.6-2-3.7v-0.4l0.9,0l0,0.4c0,0.1,0,1.8,1.6,2.9l0.2,0.2l-0.2,0.7H217.4z"/>
<linearGradient id="SVGID_26_" gradientUnits="userSpaceOnUse" x1="215.2725" y1="408.0288" x2="217.8564" y2="408.0288">
	<stop  offset="0" style="stop-color:#00ED7E"/>
	<stop  offset="1" style="stop-color:#00AA7E"/>
</linearGradient>
<path class="st25" d="M217.4,410l-0.1-0.1c-2-1.4-2-3.5-2-3.6v-0.3l0.7,0l0,0.3c0,0.1,0,1.8,1.7,3l0.2,0.1l-0.2,0.5H217.4z"/>
<linearGradient id="SVGID_27_" gradientUnits="userSpaceOnUse" x1="215.4727" y1="408.0317" x2="217.6221" y2="408.0317">
	<stop  offset="0" style="stop-color:#00ED7E"/>
	<stop  offset="1" style="stop-color:#00AA7E"/>
</linearGradient>
<path class="st26" d="M217.4,409.8L217.4,409.8c-1.9-1.4-2-3.4-2-3.4v-0.1l0.3,0l0,0.1c0,0.1,0,1.9,1.8,3.1l0.1,0l-0.1,0.3H217.4z"
	/>
<linearGradient id="SVGID_28_" gradientUnits="userSpaceOnUse" x1="215.5723" y1="408.0347" x2="217.5049" y2="408.0347">
	<stop  offset="0" style="stop-color:#00ED7E"/>
	<stop  offset="1" style="stop-color:#00AA7E"/>
</linearGradient>
<path class="st27" d="M217.5,409.7C217.5,409.7,217.4,409.7,217.5,409.7c-1.9-1.3-1.9-3.3-1.9-3.3l0.1,0c0,0.1,0,2,1.8,3.2
	L217.5,409.7z"/>
<linearGradient id="SVGID_29_" gradientUnits="userSpaceOnUse" x1="211.1162" y1="408.0352" x2="212.0488" y2="408.0352">
	<stop  offset="0" style="stop-color:#00ED7E"/>
	<stop  offset="1" style="stop-color:#00AA7E"/>
</linearGradient>
<polygon class="st28" points="211.2,410.1 211.1,409.7 211.1,406 212,406 212,409.8 211.8,410 211.6,410.1 "/>
<linearGradient id="SVGID_30_" gradientUnits="userSpaceOnUse" x1="211.2158" y1="408.0347" x2="211.9492" y2="408.0347">
	<stop  offset="0" style="stop-color:#00ED7E"/>
	<stop  offset="1" style="stop-color:#00AA7E"/>
</linearGradient>
<polygon class="st29" points="211.3,410 211.2,409.6 211.2,406.1 211.9,406.1 211.9,409.8 211.8,409.9 211.6,410 "/>
<linearGradient id="SVGID_31_" gradientUnits="userSpaceOnUse" x1="211.416" y1="408.0342" x2="211.749" y2="408.0342">
	<stop  offset="0" style="stop-color:#00ED7E"/>
	<stop  offset="1" style="stop-color:#00AA7E"/>
</linearGradient>
<polygon class="st30" points="211.5,409.8 211.4,409.6 211.4,406.3 211.7,406.3 211.7,409.7 211.6,409.8 "/>
<linearGradient id="SVGID_32_" gradientUnits="userSpaceOnUse" x1="211.5156" y1="408.0347" x2="211.6494" y2="408.0347">
	<stop  offset="0" style="stop-color:#00ED7E"/>
	<stop  offset="1" style="stop-color:#00AA7E"/>
</linearGradient>
<path class="st31" d="M211.6,409.7C211.5,409.7,211.5,409.7,211.6,409.7l-0.1-3.3h0.1L211.6,409.7L211.6,409.7z"/>
</svg>
