<?xml version="1.0" encoding="utf-8"?>
<!-- Generator: Adobe Illustrator 23.0.2, SVG Export Plug-In . SVG Version: 6.00 Build 0)  -->
<svg version="1.1" id="Capa_1" xmlns="http://www.w3.org/2000/svg" xmlns:xlink="http://www.w3.org/1999/xlink" x="0px" y="0px"
	 viewBox="185.9 375.9 42.1 42.1" style="enable-background:new 185.9 375.9 42.1 42.1;" xml:space="preserve">
<style type="text/css">
	.st0{fill:url(#SVGID_1_);}
	.st1{fill:url(#SVGID_2_);}
	.st2{fill:url(#SVGID_3_);}
	.st3{fill:url(#SVGID_4_);}
</style>
<linearGradient id="SVGID_1_" gradientUnits="userSpaceOnUse" x1="185.9375" y1="402.6292" x2="228.0625" y2="402.6292">
	<stop  offset="0" style="stop-color:#00ED7E"/>
	<stop  offset="1" style="stop-color:#00AA7E"/>
</linearGradient>
<path class="st0" d="M186.5,418.1c-0.3,0-0.5-0.2-0.5-0.5s0.2-0.5,0.5-0.5h1.5v-6c-0.4-0.3-0.7-0.8-0.7-1.4c0-1,0.8-1.9,1.9-1.9h5
	l0.4-20c0-0.3,0.2-0.5,0.5-0.5h4c0.3,0,0.5,0.2,0.5,0.5l0.4,17.4h1.9l0.6-10.1c0-0.3,0.3-0.5,0.5-0.5h2.6c0.3,0,0.5,0.2,0.5,0.5
	l0.6,10.1h1.6l0.6-10.1c0-0.3,0.3-0.5,0.5-0.5h2.6c0.3,0,0.5,0.2,0.5,0.5l0.6,10.1h1.6l0.6-10.1c0-0.3,0.3-0.5,0.5-0.5h2.6
	c0.3,0,0.5,0.2,0.5,0.5l0.6,10.1h4.1c1,0,1.9,0.8,1.9,1.9c0,0.5-0.2,1-0.6,1.4l0,8.7h2.1c0.3,0,0.5,0.2,0.5,0.5s-0.2,0.5-0.5,0.5
	H186.5z M224.3,417v-8.2l-1.5,0c-0.3,0-0.5-0.2-0.5-0.5s0.2-0.5,0.5-0.5h1.3c0.4,0,0.8-0.4,0.8-0.8s-0.4-0.8-0.8-0.8h-26.5
	c-0.4,0-0.8,0.4-0.8,0.8s0.4,0.8,0.8,0.8h22.5c0.3,0,0.5,0.2,0.5,0.5s-0.2,0.5-0.5,0.5h-22.6l0,0.1l0,8.1H224.3z M196.5,417v-8.7
	c-0.4-0.3-0.7-0.8-0.7-1.4c0-1,0.8-1.9,1.9-1.9h1.2l-0.4-16.8h-2.9L195,417H196.5z M193.9,417l0.1-5.6h-2.3c-0.3,0-0.5-0.2-0.5-0.5
	s0.2-0.5,0.5-0.5h2.3l0-1.6h-5c-0.4,0-0.8,0.4-0.8,0.8s0.4,0.8,0.8,0.8c0.3,0,0.5,0.2,0.5,0.5s-0.2,0.5-0.5,0.5H189l0,0.1l0,5.4
	H193.9z M219,405.1l-0.6-9.5h-1.6l-0.6,9.5H219z M212.4,405.1l-0.6-9.5h-1.6l-0.6,9.5H212.4z M205.8,405.1l-0.6-9.5h-1.6l-0.6,9.5
	H205.8z"/>
<linearGradient id="SVGID_2_" gradientUnits="userSpaceOnUse" x1="186.0374" y1="402.6292" x2="227.9626" y2="402.6292">
	<stop  offset="0" style="stop-color:#00ED7E"/>
	<stop  offset="1" style="stop-color:#00AA7E"/>
</linearGradient>
<path class="st1" d="M186.5,418c-0.2,0-0.4-0.2-0.4-0.4c0-0.2,0.2-0.4,0.4-0.4h1.6V411l-0.1-0.1c-0.4-0.3-0.6-0.8-0.6-1.3
	c0-1,0.8-1.8,1.8-1.8h5.1l0.4-20.1c0-0.2,0.2-0.4,0.4-0.4h4c0.2,0,0.4,0.2,0.4,0.4l0.4,17.5h2.1l0.6-10.2c0-0.2,0.2-0.4,0.4-0.4h2.6
	c0.2,0,0.4,0.2,0.4,0.4l0.6,10.2h1.8l0.6-10.2c0-0.2,0.2-0.4,0.4-0.4h2.6c0.2,0,0.4,0.2,0.4,0.4l0.6,10.2h1.8l0.6-10.2
	c0-0.2,0.2-0.4,0.4-0.4h2.6c0.2,0,0.4,0.2,0.4,0.4l0.6,10.2h4.2c1,0,1.8,0.8,1.8,1.8c0,0.5-0.2,1-0.6,1.3l-0.1,0.1v8.8h2.2
	c0.2,0,0.4,0.2,0.4,0.4c0,0.2-0.2,0.4-0.4,0.4H186.5z M224.4,417.1v-8.4l-0.2,0l-1.4,0c-0.2,0-0.4-0.2-0.4-0.4
	c0-0.2,0.2-0.4,0.4-0.4h1.3c0.5,0,0.9-0.4,0.9-0.9s-0.4-0.9-0.9-0.9h-26.5c-0.5,0-0.9,0.4-0.9,0.9s0.4,0.9,0.9,0.9h22.5
	c0.2,0,0.4,0.2,0.4,0.4c0,0.2-0.2,0.4-0.4,0.4h-22.7l0,0.2l0,8.2H224.4z M196.6,417.1v-8.8l-0.1-0.1c-0.4-0.3-0.6-0.8-0.6-1.3
	c0-1,0.8-1.8,1.8-1.8h1.3l-0.4-17h-3.1l-0.6,28.9H196.6z M194,417.1l0.1-5.8h-2.4c-0.2,0-0.4-0.2-0.4-0.4s0.2-0.4,0.4-0.4h2.4l0-1.8
	h-5.1c-0.5,0-0.9,0.4-0.9,0.9c0,0.5,0.4,0.9,0.9,0.9c0.2,0,0.4,0.2,0.4,0.4s-0.2,0.4-0.4,0.4h-0.2l0,0.2l0,5.5H194z M219.1,405.2
	l-0.6-9.7h-1.8l-0.6,9.7H219.1z M212.5,405.2l-0.6-9.7h-1.8l-0.6,9.7H212.5z M205.9,405.2l-0.6-9.7h-1.8l-0.6,9.7H205.9z"/>
<linearGradient id="SVGID_3_" gradientUnits="userSpaceOnUse" x1="195.8711" y1="383.7549" x2="228.0625" y2="383.7549">
	<stop  offset="0" style="stop-color:#00ED7E"/>
	<stop  offset="1" style="stop-color:#00AA7E"/>
</linearGradient>
<path class="st2" d="M220.2,391.6c-2.7,0-5.1-1.3-6.6-3.6l0-0.1l-0.1,0c-0.6,0.2-1.3,0.3-1.9,0.3c-1.5,0-3-0.6-4.1-1.7l0,0l-0.1,0
	c-0.6,0.2-1.2,0.4-1.8,0.4c-1.2,0-2.3-0.4-3.1-1.3l-0.1-0.1l-0.1,0c-0.5,0.4-1.1,0.6-1.7,0.6c-0.3,0-0.5-0.2-0.5-0.5
	c0-0.3,0.2-0.5,0.5-0.5c0.5,0,1.1-0.3,1.4-0.7c0.1-0.1,0.3-0.2,0.4-0.2c0.2,0,0.3,0.1,0.4,0.2c0.7,0.9,1.7,1.4,2.7,1.4
	c0.6,0,1.2-0.2,1.7-0.4l0.2,0l0.1,0c0.2,0,0.3,0.1,0.4,0.2c0.9,1.1,2.2,1.7,3.6,1.7c0.7,0,1.4-0.1,2-0.4l0.2,0
	c0.3,0,0.4,0.2,0.5,0.3c1.2,2.2,3.5,3.5,5.9,3.5c3.7,0,6.8-3,6.8-6.8s-3-6.8-6.8-6.8c-1.8,0-3.4,0.7-4.7,1.9
	c-0.1,0.1-0.2,0.1-0.4,0.1c-0.1,0-0.3,0-0.4-0.1c-0.9-0.8-2-1.2-3.2-1.2c-1.4,0-2.7,0.6-3.6,1.7c-0.1,0.1-0.2,0.2-0.4,0.2l-0.1,0
	c-0.7-0.3-1.2-0.5-1.8-0.5c-1.6,0-2.9,1.1-3.3,2.6c0,0.2-0.2,0.3-0.3,0.4l-0.1,0l-0.3,0l-0.1,0c-0.3-0.2-0.6-0.2-0.9-0.2
	c-0.9,0-1.7,0.7-1.8,1.7c0,0.2-0.1,0.4-0.3,0.4l-0.1,0l-0.3,0l-0.1-0.1c-0.1-0.1-0.3-0.1-0.4-0.1c-0.4,0-0.8,0.4-0.8,0.8
	c0,0.3-0.2,0.5-0.5,0.5s-0.5-0.2-0.5-0.5c0-1,0.8-1.9,1.9-1.9c0.1,0,0.1,0,0.2,0l0.1,0l0-0.1c0.4-1.2,1.5-1.9,2.7-1.9
	c0.2,0,0.5,0,0.7,0.1l0.1,0l0-0.1c0.7-1.6,2.3-2.7,4.1-2.7c0.6,0,1.2,0.1,1.8,0.4l0.1,0l0,0c1.1-1.1,2.5-1.7,4.1-1.7
	c1.3,0,2.5,0.4,3.5,1.2l0.1,0l0.1,0c1.4-1.2,3.2-1.8,5-1.8c4.3,0,7.8,3.5,7.8,7.8C228.1,388.1,224.6,391.6,220.2,391.6z"/>
<linearGradient id="SVGID_4_" gradientUnits="userSpaceOnUse" x1="195.9712" y1="383.7548" x2="227.9626" y2="383.7548">
	<stop  offset="0" style="stop-color:#00ED7E"/>
	<stop  offset="1" style="stop-color:#00AA7E"/>
</linearGradient>
<path class="st3" d="M220.2,391.5c-2.6,0-5.1-1.3-6.5-3.6l-0.1-0.1l-0.1,0c-0.6,0.2-1.2,0.3-1.9,0.3c-1.5,0-2.9-0.6-4-1.6l-0.1-0.1
	l-0.1,0c-0.5,0.2-1.2,0.4-1.7,0.4c-1.1,0-2.2-0.4-3-1.2l-0.1-0.1l-0.1,0.1c-0.5,0.4-1.1,0.6-1.7,0.6c-0.2,0-0.4-0.2-0.4-0.4
	c0-0.2,0.2-0.4,0.4-0.4c0.6,0,1.1-0.3,1.5-0.7c0.1-0.1,0.2-0.2,0.3-0.2c0.1,0,0.3,0.1,0.3,0.2c0.7,0.9,1.7,1.4,2.8,1.4
	c0.6,0,1.2-0.2,1.7-0.5l0,0l0.1,0l0.1,0c0.1,0,0.2,0,0.3,0.1c0.9,1.1,2.3,1.7,3.7,1.7c0.7,0,1.4-0.2,2-0.4l0.1,0l0.1,0
	c0.2,0,0.3,0.1,0.4,0.2c1.2,2.2,3.5,3.6,6,3.6c3.8,0,6.9-3.1,6.9-6.9s-3.1-6.9-6.9-6.9c-1.8,0-3.5,0.7-4.8,1.9
	c-0.1,0.1-0.2,0.1-0.3,0.1c-0.1,0-0.2,0-0.3-0.1c-0.9-0.8-2.1-1.3-3.3-1.3c-1.4,0-2.8,0.6-3.7,1.7c-0.1,0.1-0.2,0.1-0.3,0.1h-0.1
	l-0.1,0c-0.6-0.3-1.2-0.5-1.8-0.5c-1.6,0-3,1.1-3.4,2.6c0,0.1-0.1,0.2-0.3,0.3l-0.1,0l-0.3,0l-0.1,0c-0.3-0.2-0.6-0.3-0.9-0.3
	c-1,0-1.8,0.8-1.9,1.8c0,0.2-0.1,0.3-0.2,0.4l-0.1,0l-0.3,0l-0.1,0c-0.1-0.1-0.3-0.1-0.5-0.1c-0.5,0-0.9,0.4-0.9,0.9
	c0,0.2-0.2,0.4-0.4,0.4c-0.2,0-0.4-0.2-0.4-0.4c0-1,0.8-1.8,1.8-1.8c0.1,0,0.1,0,0.2,0l0.2,0l0-0.1c0.4-1.1,1.4-1.9,2.6-1.9
	c0.2,0,0.5,0,0.7,0.1l0.2,0l0.1-0.1c0.7-1.6,2.3-2.6,4-2.6c0.6,0,1.2,0.1,1.7,0.4l0.1,0l0.1-0.1c1.1-1.1,2.5-1.6,4-1.6
	c1.2,0,2.4,0.4,3.4,1.1l0.1,0.1l0.1-0.1c1.4-1.2,3.1-1.8,4.9-1.8c4.3,0,7.7,3.5,7.7,7.7C228,388,224.5,391.5,220.2,391.5z"/>
</svg>
