<?xml version="1.0" encoding="utf-8"?>
<!-- Generator: Adobe Illustrator 23.0.2, SVG Export Plug-In . SVG Version: 6.00 Build 0)  -->
<svg version="1.1" id="Capa_1" xmlns="http://www.w3.org/2000/svg" xmlns:xlink="http://www.w3.org/1999/xlink" x="0px" y="0px"
	 viewBox="187.7 378 38.7 38.1" style="enable-background:new 187.7 378 38.7 38.1;" xml:space="preserve">
<style type="text/css">
	.st0{fill:url(#SVGID_1_);}
	.st1{fill:url(#SVGID_2_);}
	.st2{fill:url(#SVGID_3_);}
	.st3{fill:url(#SVGID_4_);}
	.st4{fill:url(#SVGID_5_);}
	.st5{fill:url(#SVGID_6_);}
	.st6{fill:url(#SVGID_7_);}
	.st7{fill:url(#SVGID_8_);}
	.st8{fill:url(#SVGID_9_);}
	.st9{fill:url(#SVGID_10_);}
	.st10{fill:url(#SVGID_11_);}
	.st11{fill:url(#SVGID_12_);}
	.st12{fill:url(#SVGID_13_);}
	.st13{fill:url(#SVGID_14_);}
	.st14{fill:url(#SVGID_15_);}
	.st15{fill:url(#SVGID_16_);}
	.st16{fill:url(#SVGID_17_);}
	.st17{fill:url(#SVGID_18_);}
	.st18{fill:url(#SVGID_19_);}
	.st19{fill:url(#SVGID_20_);}
</style>
<linearGradient id="SVGID_1_" gradientUnits="userSpaceOnUse" x1="194.1533" y1="401.0276" x2="203.2439" y2="401.0276">
	<stop  offset="0" style="stop-color:#00ED7E"/>
	<stop  offset="1" style="stop-color:#00AA7E"/>
</linearGradient>
<path class="st0" d="M195.8,406.7c-0.2,0-0.4-0.1-0.5-0.3c-0.8-1.2-1.2-2.5-1.2-3.9c0-3.9,3.2-7.1,7.1-7.1c0.5,0,1.1,0.1,1.6,0.2
	c0.1,0,0.3,0.1,0.4,0.3s0.1,0.3,0.1,0.4c-0.1,0.3-0.3,0.4-0.6,0.4c-0.6-0.1-1-0.2-1.4-0.2c-3.3,0-5.9,2.7-5.9,5.9
	c0,1.2,0.3,2.3,1,3.3c0.2,0.3,0.1,0.6-0.2,0.8C196,406.6,195.9,406.7,195.8,406.7z"/>
<linearGradient id="SVGID_2_" gradientUnits="userSpaceOnUse" x1="194.2534" y1="401.0276" x2="203.1441" y2="401.0276">
	<stop  offset="0" style="stop-color:#00ED7E"/>
	<stop  offset="1" style="stop-color:#00AA7E"/>
</linearGradient>
<path class="st1" d="M195.8,406.6c-0.2,0-0.3-0.1-0.4-0.2c-0.8-1.1-1.2-2.5-1.2-3.9c0-3.8,3.1-7,7-7c0.5,0,1,0.1,1.5,0.2
	c0.1,0,0.2,0.1,0.3,0.2s0.1,0.2,0.1,0.4c0,0.2-0.2,0.4-0.5,0.4c-0.5-0.1-1-0.2-1.4-0.2c-3.3,0-6,2.7-6,6c0,1.2,0.4,2.4,1,3.3
	c0.1,0.2,0.1,0.5-0.1,0.7C196,406.5,195.9,406.6,195.8,406.6z"/>
<linearGradient id="SVGID_3_" gradientUnits="userSpaceOnUse" x1="197.0423" y1="405.0044" x2="208.2988" y2="405.0044">
	<stop  offset="0" style="stop-color:#00ED7E"/>
	<stop  offset="1" style="stop-color:#00AA7E"/>
</linearGradient>
<path class="st2" d="M201.2,409.5c-1.4,0-2.8-0.4-3.9-1.2c-0.1-0.1-0.2-0.2-0.2-0.4c0-0.2,0-0.3,0.1-0.4c0.1-0.2,0.3-0.3,0.5-0.3
	c0.1,0,0.2,0,0.3,0.1c1,0.7,2.1,1,3.3,1c3.3,0,5.9-2.7,5.9-5.9c0-0.4,0-0.9-0.1-1.3c-0.1-0.3,0.1-0.6,0.4-0.7c0,0,0,0,0,0
	c0.4,0,0.6,0.2,0.7,0.4c0.1,0.5,0.2,1,0.2,1.6C208.3,406.4,205.1,409.5,201.2,409.5z"/>
<linearGradient id="SVGID_4_" gradientUnits="userSpaceOnUse" x1="197.1422" y1="405.0032" x2="208.1987" y2="405.0032">
	<stop  offset="0" style="stop-color:#00ED7E"/>
	<stop  offset="1" style="stop-color:#00AA7E"/>
</linearGradient>
<path class="st3" d="M201.2,409.4c-1.4,0-2.7-0.4-3.9-1.2c-0.1-0.1-0.2-0.2-0.2-0.3c0-0.1,0-0.3,0.1-0.4c0.1-0.1,0.2-0.2,0.4-0.2
	c0.1,0,0.2,0,0.3,0.1c1,0.7,2.1,1,3.3,1c3.3,0,6-2.7,6-6c0-0.5-0.1-0.9-0.2-1.3c-0.1-0.3,0.1-0.5,0.4-0.6c0,0,0,0,0,0
	c0.3,0,0.5,0.1,0.5,0.4c0.1,0.5,0.2,1,0.2,1.6C208.2,406.3,205.1,409.4,201.2,409.4z"/>
<linearGradient id="SVGID_5_" gradientUnits="userSpaceOnUse" x1="204.7349" y1="397.9041" x2="206.8476" y2="397.9041">
	<stop  offset="0" style="stop-color:#00ED7E"/>
	<stop  offset="1" style="stop-color:#00AA7E"/>
</linearGradient>
<path class="st4" d="M206.3,399c-0.2,0-0.3-0.1-0.4-0.2c-0.3-0.3-0.6-0.6-0.9-0.9c-0.2-0.2-0.3-0.6-0.1-0.8c0.1-0.1,0.3-0.2,0.4-0.2
	c0.1,0,0.3,0,0.4,0.1c0.4,0.3,0.7,0.7,1,1c0.1,0.1,0.1,0.3,0.1,0.4c0,0.2-0.1,0.3-0.2,0.4C206.5,398.9,206.4,399,206.3,399z"/>
<linearGradient id="SVGID_6_" gradientUnits="userSpaceOnUse" x1="204.8345" y1="397.9041" x2="206.7475" y2="397.9041">
	<stop  offset="0" style="stop-color:#00ED7E"/>
	<stop  offset="1" style="stop-color:#00AA7E"/>
</linearGradient>
<path class="st5" d="M206.3,398.9c-0.1,0-0.3-0.1-0.4-0.2c-0.3-0.3-0.6-0.6-0.9-0.9c-0.2-0.2-0.2-0.5-0.1-0.7
	c0.1-0.1,0.2-0.2,0.4-0.2c0.1,0,0.2,0,0.3,0.1c0.4,0.3,0.7,0.7,1,1c0.1,0.1,0.1,0.2,0.1,0.3c0,0.1-0.1,0.2-0.2,0.3
	C206.5,398.8,206.4,398.9,206.3,398.9z"/>
<linearGradient id="SVGID_7_" gradientUnits="userSpaceOnUse" x1="197.04" y1="402.4717" x2="205.4111" y2="402.4717">
	<stop  offset="0" style="stop-color:#00ED7E"/>
	<stop  offset="1" style="stop-color:#00AA7E"/>
</linearGradient>
<path class="st6" d="M201.2,406.7c-2.3,0-4.2-1.9-4.2-4.2s1.9-4.2,4.2-4.2c2.3,0,4.2,1.9,4.2,4.2S203.5,406.7,201.2,406.7z
	 M201.2,399.4c-1.7,0-3,1.4-3,3s1.4,3,3,3c1.7,0,3-1.4,3-3S202.9,399.4,201.2,399.4z"/>
<linearGradient id="SVGID_8_" gradientUnits="userSpaceOnUse" x1="197.1401" y1="402.4714" x2="205.311" y2="402.4714">
	<stop  offset="0" style="stop-color:#00ED7E"/>
	<stop  offset="1" style="stop-color:#00AA7E"/>
</linearGradient>
<path class="st7" d="M201.2,406.6c-2.3,0-4.1-1.8-4.1-4.1s1.8-4.1,4.1-4.1s4.1,1.8,4.1,4.1S203.5,406.6,201.2,406.6z M201.2,399.3
	c-1.7,0-3.1,1.4-3.1,3.1c0,1.7,1.4,3.1,3.1,3.1c1.7,0,3.1-1.4,3.1-3.1C204.4,400.7,203,399.3,201.2,399.3z"/>
<linearGradient id="SVGID_9_" gradientUnits="userSpaceOnUse" x1="187.6572" y1="402.4714" x2="214.793" y2="402.4714">
	<stop  offset="0" style="stop-color:#00ED7E"/>
	<stop  offset="1" style="stop-color:#00AA7E"/>
</linearGradient>
<path class="st8" d="M199.8,416c-0.7,0-1.3-0.6-1.3-1.3v-1.2l-0.1,0c-1.1-0.3-2.1-0.7-3-1.2l-0.1,0l-0.9,0.9
	c-0.2,0.2-0.6,0.4-0.9,0.4c-0.3,0-0.7-0.1-0.9-0.4l-2-2c-0.5-0.5-0.5-1.3,0-1.8l0.9-0.9l0-0.1c-0.6-0.9-1-1.9-1.2-3l0-0.1H189
	c-0.7,0-1.3-0.6-1.3-1.3V401c0-0.7,0.6-1.3,1.3-1.3h1.2l0-0.1c0.3-1.1,0.7-2.1,1.2-3l0-0.1l-0.9-0.9c-0.2-0.2-0.4-0.6-0.4-0.9
	c0-0.3,0.1-0.7,0.4-0.9l2-2c0.2-0.2,0.6-0.4,0.9-0.4c0.3,0,0.7,0.1,0.9,0.4l0.9,0.9l0.1,0c0.9-0.6,2-1,3-1.2l0.1,0v-1.2
	c0-0.7,0.6-1.3,1.3-1.3h2.9c0.7,0,1.3,0.6,1.3,1.3v1.2l0.1,0c1.1,0.3,2.1,0.7,3,1.2l0.1,0l0.9-0.9c0.2-0.2,0.6-0.4,0.9-0.4
	s0.7,0.1,0.9,0.4l2,2c0.2,0.2,0.4,0.6,0.4,0.9c0,0.3-0.1,0.7-0.4,0.9l-0.9,0.9l0,0.1c0.6,0.9,1,2,1.2,3l0,0.1h1.2
	c0.7,0,1.3,0.6,1.3,1.3v2.9c0,0.7-0.6,1.3-1.3,1.3h-1.2l0,0.1c-0.3,1.1-0.7,2.1-1.2,3l0,0.1l0.9,0.9c0.2,0.2,0.4,0.6,0.4,0.9
	c0,0.3-0.1,0.7-0.4,0.9l-2,2c-0.2,0.2-0.6,0.4-0.9,0.4c-0.3,0-0.7-0.1-0.9-0.4l-0.9-0.9l-0.1,0c-0.9,0.6-1.9,1-3,1.2l-0.1,0v1.2
	c0,0.7-0.6,1.3-1.3,1.3H199.8z M199.8,414.9l3,0l0-0.2l0-1.6c0-0.3,0.2-0.5,0.5-0.6c1.3-0.3,2.5-0.8,3.6-1.5
	c0.1-0.1,0.2-0.1,0.3-0.1c0.2,0,0.3,0.1,0.4,0.2l1.2,1.2l0.1,0l0-0.1l2.1-2.1L211,410l-1.2-1.2c-0.2-0.2-0.2-0.5-0.1-0.7
	c0.7-1.1,1.2-2.3,1.5-3.6c0.1-0.3,0.3-0.5,0.6-0.5h1.8l0-0.2l0-3l-0.2,0l-1.6,0c-0.3,0-0.5-0.2-0.6-0.5c-0.3-1.3-0.8-2.5-1.5-3.6
	c-0.2-0.2-0.1-0.5,0.1-0.7l1.3-1.3l-0.1-0.1l-2.1-2.1l-0.1,0l0,0.1l-1.2,1.2c-0.1,0.1-0.3,0.2-0.4,0.2c-0.1,0-0.2,0-0.3-0.1
	c-1.1-0.7-2.3-1.2-3.6-1.5c-0.3-0.1-0.5-0.3-0.5-0.6v-1.8l-0.2,0l-3,0l0,0.2l0,1.6c0,0.3-0.2,0.5-0.5,0.6c-1.3,0.3-2.5,0.8-3.6,1.5
	c-0.1,0.1-0.2,0.1-0.3,0.1c-0.2,0-0.3-0.1-0.4-0.2l-1.2-1.2l-0.1,0l0,0.1l-2.1,2.1l0.1,0.1l1.2,1.2c0.2,0.2,0.2,0.5,0.1,0.7
	c-0.7,1.1-1.2,2.3-1.5,3.6c-0.1,0.3-0.3,0.5-0.6,0.5h-1.8l0,0.2l0,3l0.2,0l1.6,0c0.3,0,0.5,0.2,0.6,0.5c0.3,1.3,0.8,2.5,1.5,3.6
	c0.2,0.2,0.1,0.5-0.1,0.7l-1.3,1.3l0.1,0.1l2.1,2.1l0.1,0l0-0.1l1.2-1.2c0.1-0.1,0.3-0.2,0.4-0.2c0.1,0,0.2,0,0.3,0.1
	c1.1,0.7,2.3,1.2,3.6,1.5c0.3,0.1,0.5,0.3,0.5,0.6v1.8L199.8,414.9z"/>
<linearGradient id="SVGID_10_" gradientUnits="userSpaceOnUse" x1="187.7573" y1="402.4714" x2="214.6938" y2="402.4714">
	<stop  offset="0" style="stop-color:#00ED7E"/>
	<stop  offset="1" style="stop-color:#00AA7E"/>
</linearGradient>
<path class="st9" d="M199.8,415.9c-0.7,0-1.2-0.5-1.2-1.2v-1.3l-0.2,0c-1-0.3-2-0.7-3-1.2l-0.1-0.1l-0.9,0.9
	c-0.2,0.2-0.5,0.4-0.8,0.4s-0.6-0.1-0.8-0.4l-2-2c-0.5-0.5-0.5-1.2,0-1.7l0.9-0.9l-0.1-0.1c-0.6-0.9-1-1.9-1.2-3l0-0.2H189
	c-0.7,0-1.2-0.5-1.2-1.2V401c0-0.7,0.5-1.2,1.2-1.2h1.3l0-0.2c0.3-1,0.7-2,1.2-3l0.1-0.1l-0.9-0.9c-0.2-0.2-0.4-0.5-0.4-0.8
	c0-0.3,0.1-0.6,0.3-0.8l2-2c0.2-0.2,0.5-0.4,0.8-0.4c0.3,0,0.6,0.1,0.8,0.4l0.9,0.9l0.1-0.1c0.9-0.6,1.9-1,3-1.2l0.2,0v-1.3
	c0-0.7,0.5-1.2,1.2-1.2h2.9c0.7,0,1.2,0.5,1.2,1.2v1.3l0.2,0c1,0.3,2,0.7,3,1.2l0.1,0.1l0.9-0.9c0.2-0.2,0.5-0.4,0.8-0.4
	c0.3,0,0.6,0.1,0.8,0.4l2,2c0.2,0.2,0.4,0.5,0.4,0.8c0,0.3-0.1,0.6-0.3,0.8l-0.9,0.9l0.1,0.1c0.6,0.9,1,1.9,1.2,3l0,0.2h1.3
	c0.7,0,1.2,0.5,1.2,1.2v2.9c0,0.7-0.5,1.2-1.2,1.2h-1.3l0,0.2c-0.3,1-0.7,2-1.2,3l-0.1,0.1l0.9,0.9c0.2,0.2,0.4,0.5,0.4,0.8
	s-0.1,0.6-0.4,0.8l-2,2c-0.2,0.2-0.5,0.4-0.8,0.4s-0.6-0.1-0.8-0.4l-0.9-0.9l-0.1,0.1c-0.9,0.6-1.9,1-3,1.2l-0.2,0v1.3
	c0,0.7-0.5,1.2-1.2,1.2H199.8z M199.8,415l3.1,0l0-0.3l0-1.6c0-0.2,0.2-0.4,0.4-0.5c1.3-0.3,2.5-0.8,3.6-1.5
	c0.1-0.1,0.2-0.1,0.3-0.1c0.1,0,0.2,0,0.3,0.1l1.2,1.2l0.2,0l0.1-0.1l2.2-2.2l-0.2-0.2l-1.2-1.2c-0.2-0.2-0.2-0.4-0.1-0.6
	c0.7-1.1,1.2-2.3,1.5-3.6c0-0.2,0.2-0.4,0.5-0.4h1.9l0-0.3l0-3.1l-0.3,0l-1.6,0c-0.2,0-0.4-0.2-0.5-0.4c-0.3-1.3-0.8-2.5-1.5-3.6
	c-0.1-0.2-0.1-0.4,0.1-0.6l1.3-1.3l-0.2-0.2l-2.1-2.1l-0.2,0l-0.1,0.1l-1.2,1.2c-0.1,0.1-0.2,0.1-0.3,0.1c-0.1,0-0.2,0-0.3-0.1
	c-1.1-0.7-2.3-1.2-3.6-1.5c-0.2,0-0.4-0.2-0.4-0.5V390l-0.3,0l-3.1,0l0,0.3l0,1.6c0,0.2-0.2,0.4-0.4,0.5c-1.3,0.3-2.5,0.8-3.6,1.5
	c-0.1,0.1-0.2,0.1-0.3,0.1c-0.1,0-0.2,0-0.3-0.1l-1.2-1.2l-0.2,0l-0.1,0.1l-2.2,2.2l0.2,0.2l1.2,1.2c0.2,0.2,0.2,0.4,0.1,0.6
	c-0.7,1.1-1.2,2.3-1.5,3.6c0,0.2-0.2,0.4-0.5,0.4h-1.9l0,0.3l0,3.1l0.3,0l1.6,0c0.2,0,0.4,0.2,0.5,0.4c0.3,1.3,0.8,2.5,1.5,3.6
	c0.1,0.2,0.1,0.4-0.1,0.6l-1.3,1.3l0.2,0.2l2.1,2.1l0.2,0l0.1-0.1l1.2-1.2c0.1-0.1,0.2-0.1,0.3-0.1c0.1,0,0.2,0,0.3,0.1
	c1.1,0.7,2.3,1.2,3.6,1.5c0.2,0,0.4,0.2,0.4,0.5v1.9L199.8,415z"/>
<linearGradient id="SVGID_11_" gradientUnits="userSpaceOnUse" x1="214.3633" y1="384.7876" x2="219.1217" y2="384.7876">
	<stop  offset="0" style="stop-color:#00ED7E"/>
	<stop  offset="1" style="stop-color:#00AA7E"/>
</linearGradient>
<path class="st10" d="M215,387.2c-0.3,0-0.5-0.2-0.6-0.4c-0.1-0.3-0.1-0.6-0.1-0.9c0-1.9,1.6-3.5,3.5-3.5c0.3,0,0.6,0,0.9,0.1
	c0.3,0.1,0.5,0.4,0.4,0.7c-0.1,0.3-0.3,0.4-0.6,0.4c-0.3-0.1-0.5-0.1-0.7-0.1c-1.3,0-2.3,1-2.3,2.3c0,0.2,0,0.4,0.1,0.6
	c0,0.1,0,0.3-0.1,0.4c-0.1,0.1-0.2,0.2-0.3,0.3L215,387.2L215,387.2z"/>
<linearGradient id="SVGID_12_" gradientUnits="userSpaceOnUse" x1="214.4624" y1="384.7876" x2="219.0229" y2="384.7876">
	<stop  offset="0" style="stop-color:#00ED7E"/>
	<stop  offset="1" style="stop-color:#00AA7E"/>
</linearGradient>
<path class="st11" d="M215,387.1c-0.2,0-0.4-0.1-0.5-0.4c-0.1-0.3-0.1-0.6-0.1-0.8c0-1.9,1.5-3.4,3.4-3.4c0.3,0,0.6,0,0.8,0.1
	c0.2,0.1,0.4,0.3,0.3,0.6c-0.1,0.2-0.2,0.4-0.5,0.4c-0.3-0.1-0.5-0.1-0.7-0.1c-1.3,0-2.4,1.1-2.4,2.4c0,0.2,0,0.4,0.1,0.6
	c0,0.1,0,0.2-0.1,0.4s-0.2,0.2-0.3,0.2L215,387.1z"/>
<linearGradient id="SVGID_13_" gradientUnits="userSpaceOnUse" x1="216.5281" y1="386.9614" x2="221.2891" y2="386.9614">
	<stop  offset="0" style="stop-color:#00ED7E"/>
	<stop  offset="1" style="stop-color:#00AA7E"/>
</linearGradient>
<path class="st12" d="M217.8,389.3c-0.3,0-0.6,0-0.9-0.1c-0.3-0.1-0.5-0.4-0.4-0.7c0.1-0.3,0.3-0.4,0.6-0.4c0.3,0.1,0.5,0.1,0.7,0.1
	c1.3,0,2.3-1,2.3-2.3c0-0.2,0-0.4-0.1-0.6c0-0.1,0-0.3,0.1-0.4c0.1-0.1,0.2-0.2,0.4-0.3c0,0,0,0,0,0c0.4,0,0.6,0.2,0.7,0.4
	c0.1,0.3,0.1,0.6,0.1,0.9C221.3,387.8,219.7,389.3,217.8,389.3z"/>
<linearGradient id="SVGID_14_" gradientUnits="userSpaceOnUse" x1="216.628" y1="386.9597" x2="221.1899" y2="386.9597">
	<stop  offset="0" style="stop-color:#00ED7E"/>
	<stop  offset="1" style="stop-color:#00AA7E"/>
</linearGradient>
<path class="st13" d="M217.8,389.2c-0.3,0-0.6,0-0.8-0.1c-0.3-0.1-0.4-0.3-0.3-0.6c0.1-0.2,0.2-0.4,0.5-0.4c0.3,0.1,0.5,0.1,0.7,0.1
	c1.3,0,2.4-1.1,2.4-2.4c0-0.2,0-0.4-0.1-0.6c0-0.1,0-0.3,0.1-0.4s0.2-0.2,0.3-0.2c0,0,0,0,0,0c0.3,0,0.5,0.1,0.5,0.3
	c0.1,0.3,0.1,0.6,0.1,0.8C221.2,387.7,219.7,389.2,217.8,389.2z"/>
<linearGradient id="SVGID_15_" gradientUnits="userSpaceOnUse" x1="209.3105" y1="385.8696" x2="226.3418" y2="385.8696">
	<stop  offset="0" style="stop-color:#00ED7E"/>
	<stop  offset="1" style="stop-color:#00AA7E"/>
</linearGradient>
<path class="st14" d="M220.8,393.8c-0.5,0-0.9-0.2-1.1-0.6l-0.6-1l-0.1,0c-0.4,0.1-0.8,0.1-1.2,0.1c-0.4,0-0.8,0-1.2-0.1l-0.1,0
	l-0.6,1c-0.2,0.4-0.7,0.6-1.1,0.6c-0.2,0-0.5-0.1-0.6-0.2l-1.3-0.7c-0.6-0.4-0.8-1.2-0.5-1.8l0.6-1l0-0.1c-0.5-0.6-0.9-1.3-1.2-2.1
	l0-0.1h-1.2c-0.7,0-1.3-0.6-1.3-1.3v-1.4c0-0.7,0.6-1.3,1.3-1.3h1.2l0-0.1c0.3-0.8,0.7-1.5,1.2-2.1l0-0.1l-0.6-1
	c-0.4-0.6-0.1-1.4,0.5-1.8l1.3-0.7c0.2-0.1,0.4-0.2,0.6-0.2c0.1,0,0.2,0,0.3,0c0.3,0.1,0.6,0.3,0.8,0.6l0.6,1l0.1,0
	c0.4-0.1,0.8-0.1,1.2-0.1c0.4,0,0.8,0,1.2,0.1l0.1,0l0.6-1c0.2-0.3,0.5-0.5,0.8-0.6c0.1,0,0.2,0,0.3,0c0.2,0,0.4,0.1,0.6,0.2
	l1.3,0.7c0.3,0.2,0.5,0.5,0.6,0.8c0.1,0.3,0,0.7-0.1,1l-0.6,1l0,0.1c0.5,0.6,0.9,1.3,1.2,2.1l0,0.1h1.2c0.7,0,1.3,0.6,1.3,1.3v1.4
	c0,0.7-0.6,1.3-1.3,1.3h-1.2l0,0.1c-0.3,0.8-0.7,1.5-1.2,2.1l0,0.1l0.6,1c0.2,0.3,0.2,0.7,0.1,1c-0.1,0.3-0.3,0.6-0.6,0.8l-1.3,0.7
	C221.3,393.7,221,393.8,220.8,393.8z M219.4,390.9c0.2,0,0.4,0.1,0.5,0.3l0.9,1.5l0.1,0l1.3-0.8l0-0.1l-0.1,0l-0.8-1.4
	c-0.1-0.2-0.1-0.5,0.1-0.7c0.7-0.7,1.2-1.5,1.4-2.4c0.1-0.3,0.3-0.4,0.6-0.4h1.8l0-0.2l0-1.5l-0.2,0l-1.6,0c-0.3,0-0.5-0.2-0.6-0.4
	c-0.2-0.9-0.7-1.7-1.4-2.4c-0.2-0.2-0.2-0.5-0.1-0.7l0.9-1.5l-0.1-0.1l-0.1,0l-1.3-0.7l-0.1,0l-0.1,0.1l-0.8,1.4
	c-0.1,0.2-0.3,0.3-0.5,0.3c-0.6-0.1-1.1-0.2-1.5-0.2c-0.5,0-0.9,0.1-1.4,0.2l-0.1,0c-0.3,0-0.5-0.2-0.5-0.3l-0.9-1.5l-0.1,0
	l-1.4,0.8l0.1,0.2l0.8,1.4c0.1,0.2,0.1,0.5-0.1,0.7c-0.7,0.7-1.1,1.5-1.4,2.4c-0.1,0.3-0.3,0.4-0.6,0.4h-1.8l0,0.2v1.5l0.2,0l1.6,0
	c0.3,0,0.5,0.2,0.6,0.4c0.2,0.9,0.7,1.7,1.4,2.4c0.2,0.2,0.2,0.5,0.1,0.7l-0.9,1.5l0.1,0.1l1.3,0.7l0.2,0l0-0.1l0.8-1.4
	c0.1-0.2,0.3-0.3,0.5-0.3c0.6,0.1,1.1,0.2,1.5,0.2c0.5,0,0.9-0.1,1.4-0.2L219.4,390.9L219.4,390.9z"/>
<linearGradient id="SVGID_16_" gradientUnits="userSpaceOnUse" x1="209.4106" y1="385.8699" x2="226.2427" y2="385.8699">
	<stop  offset="0" style="stop-color:#00ED7E"/>
	<stop  offset="1" style="stop-color:#00AA7E"/>
</linearGradient>
<path class="st15" d="M220.8,393.7c-0.4,0-0.8-0.2-1-0.6l-0.6-1.1l-0.1,0c-0.4,0.1-0.8,0.1-1.2,0.1s-0.8,0-1.2-0.1l-0.1,0l-0.6,1.1
	c-0.2,0.4-0.6,0.6-1,0.6c-0.2,0-0.4-0.1-0.6-0.2l-1.3-0.7c-0.6-0.3-0.8-1.1-0.4-1.6l0.6-1.1l-0.1-0.1c-0.5-0.6-0.9-1.3-1.2-2l0-0.1
	h-1.3c-0.7,0-1.2-0.5-1.2-1.2v-1.4c0-0.7,0.5-1.2,1.2-1.2h1.3l0-0.1c0.3-0.7,0.7-1.4,1.2-2l0.1-0.1l-0.6-1.1
	c-0.3-0.6-0.1-1.3,0.4-1.6l1.3-0.7c0.2-0.1,0.4-0.2,0.6-0.2c0.1,0,0.2,0,0.3,0c0.3,0.1,0.6,0.3,0.7,0.6l0.6,1.1l0.1,0
	c0.4-0.1,0.8-0.1,1.2-0.1s0.8,0,1.2,0.1l0.1,0l0.6-1.1c0.2-0.3,0.4-0.5,0.7-0.6c0.1,0,0.2,0,0.3,0c0.2,0,0.4,0.1,0.6,0.2l1.3,0.7
	c0.6,0.3,0.8,1.1,0.4,1.6l-0.6,1.1l0.1,0.1c0.5,0.6,0.9,1.3,1.2,2l0,0.1h1.3c0.7,0,1.2,0.5,1.2,1.2v1.4c0,0.7-0.5,1.2-1.2,1.2h-1.3
	l0,0.1c-0.3,0.7-0.7,1.4-1.2,2l-0.1,0.1l0.6,1.1c0.2,0.3,0.2,0.6,0.1,0.9c-0.1,0.3-0.3,0.6-0.6,0.7l-1.3,0.7
	C221.2,393.6,221,393.7,220.8,393.7z M220.9,392.7l1.4-0.8l0.1-0.2l-0.1-0.1l-0.8-1.4c-0.1-0.2-0.1-0.4,0.1-0.6
	c0.7-0.7,1.2-1.5,1.4-2.5c0.1-0.2,0.2-0.4,0.5-0.4h1.9l0-0.3l0-1.6l-0.3,0l-1.6,0c-0.2,0-0.4-0.1-0.5-0.4c-0.2-0.9-0.7-1.8-1.4-2.5
	c-0.2-0.2-0.2-0.4-0.1-0.6l0.9-1.5l0-0.2l-0.1-0.1l-1.3-0.7l-0.1,0l-0.1,0l-0.1,0.1l-0.8,1.4c-0.1,0.1-0.2,0.2-0.4,0.2
	c-0.6-0.1-1.1-0.2-1.5-0.2s-0.9,0.1-1.4,0.2l-0.1,0c-0.3,0-0.4-0.1-0.4-0.2l-0.9-1.5l-0.2-0.1l0,0l-1.5,0.9l0.1,0.2l0.8,1.4
	c0.1,0.2,0.1,0.4-0.1,0.6c-0.7,0.7-1.2,1.5-1.4,2.5c-0.1,0.2-0.2,0.4-0.5,0.4h-1.9l0,0.3l0,1.6l0.3,0l1.6,0c0.2,0,0.4,0.1,0.5,0.4
	c0.2,0.9,0.7,1.8,1.4,2.5c0.2,0.2,0.2,0.4,0.1,0.6l-0.9,1.6l0.2,0.2l1.3,0.7l0.2,0l0.1-0.1l0.8-1.4c0.1-0.1,0.2-0.2,0.4-0.2
	c0.6,0.1,1.1,0.2,1.5,0.2s0.9-0.1,1.4-0.2l0.1,0c0.2,0,0.3,0.1,0.4,0.2l0.9,1.5L220.9,392.7z"/>
<linearGradient id="SVGID_17_" gradientUnits="userSpaceOnUse" x1="216.5293" y1="400.3059" x2="226.3418" y2="400.3059">
	<stop  offset="0" style="stop-color:#00ED7E"/>
	<stop  offset="1" style="stop-color:#00AA7E"/>
</linearGradient>
<path class="st16" d="M221.4,405.2c-0.3,0-0.6-0.3-0.6-0.6v-0.9l-0.1,0c-0.5-0.1-0.9-0.3-1.3-0.5l-0.1,0l-0.6,0.6
	c-0.1,0.1-0.3,0.2-0.4,0.2s-0.3-0.1-0.4-0.2c-0.1-0.1-0.2-0.3-0.2-0.4c0-0.2,0.1-0.3,0.2-0.4l0.6-0.6l0-0.1
	c-0.3-0.4-0.4-0.8-0.5-1.3l0-0.1h-0.9c-0.3,0-0.6-0.3-0.6-0.6s0.3-0.6,0.6-0.6h0.9l0-0.1c0.1-0.5,0.3-0.9,0.5-1.3l0-0.1l-0.6-0.6
	c-0.1-0.1-0.2-0.3-0.2-0.4s0.1-0.3,0.2-0.4c0.1-0.1,0.3-0.2,0.4-0.2c0.2,0,0.3,0.1,0.4,0.2l0.6,0.6l0.1,0c0.4-0.3,0.8-0.4,1.3-0.5
	l0.1,0V396c0-0.3,0.3-0.6,0.6-0.6s0.6,0.3,0.6,0.6v0.9l0.1,0c0.5,0.1,0.9,0.3,1.3,0.5l0.1,0l0.6-0.6c0.1-0.1,0.3-0.2,0.4-0.2
	c0.2,0,0.3,0.1,0.4,0.2c0.1,0.1,0.2,0.3,0.2,0.4c0,0.2-0.1,0.3-0.2,0.4l-0.6,0.6l0,0.1c0.3,0.4,0.4,0.8,0.5,1.3l0,0.1h0.9
	c0.3,0,0.6,0.3,0.6,0.6s-0.3,0.6-0.6,0.6h-0.9l0,0.1c-0.1,0.5-0.3,0.9-0.5,1.3l0,0.1l0.6,0.6c0.1,0.1,0.2,0.3,0.2,0.4
	c0,0.2-0.1,0.3-0.2,0.4c-0.1,0.1-0.3,0.2-0.4,0.2c-0.2,0-0.3-0.1-0.4-0.2l-0.6-0.6l-0.1,0c-0.4,0.3-0.8,0.4-1.3,0.5l-0.1,0v0.9
	C222,405,221.8,405.2,221.4,405.2z M221.4,398c-1.3,0-2.3,1-2.3,2.3c0,1.3,1,2.3,2.3,2.3s2.3-1,2.3-2.3
	C223.7,399,222.7,398,221.4,398z"/>
<linearGradient id="SVGID_18_" gradientUnits="userSpaceOnUse" x1="216.6284" y1="400.3059" x2="226.2427" y2="400.3059">
	<stop  offset="0" style="stop-color:#00ED7E"/>
	<stop  offset="1" style="stop-color:#00AA7E"/>
</linearGradient>
<path class="st17" d="M221.4,405.1c-0.3,0-0.5-0.2-0.5-0.5v-1l-0.2,0c-0.4-0.1-0.9-0.3-1.2-0.5l-0.1-0.1l-0.7,0.7
	c-0.1,0.1-0.2,0.1-0.3,0.1s-0.2,0-0.3-0.1c-0.1-0.1-0.1-0.2-0.1-0.3c0-0.1,0-0.2,0.1-0.3l0.7-0.7l-0.1-0.1c-0.3-0.4-0.4-0.8-0.5-1.2
	l0-0.2h-1c-0.3,0-0.5-0.2-0.5-0.5s0.2-0.5,0.5-0.5h1l0-0.2c0.1-0.5,0.3-0.9,0.5-1.2l0.1-0.1l-0.7-0.7c-0.2-0.2-0.2-0.5,0-0.7
	c0.1-0.1,0.2-0.1,0.3-0.1s0.2,0,0.3,0.1l0.7,0.7l0.1-0.1c0.4-0.3,0.8-0.4,1.2-0.5l0.2,0v-1c0-0.3,0.2-0.5,0.5-0.5s0.5,0.2,0.5,0.5v1
	l0.2,0c0.4,0.1,0.9,0.3,1.2,0.5l0.1,0.1l0.7-0.7c0.1-0.1,0.2-0.1,0.3-0.1s0.2,0,0.3,0.1s0.1,0.2,0.1,0.3c0,0.1,0,0.2-0.1,0.3
	l-0.7,0.7l0.1,0.1c0.3,0.4,0.4,0.8,0.5,1.2l0,0.2h1c0.3,0,0.5,0.2,0.5,0.5s-0.2,0.5-0.5,0.5h-1l0,0.2c-0.1,0.4-0.3,0.9-0.5,1.2
	l-0.1,0.1l0.7,0.7c0.1,0.1,0.1,0.2,0.1,0.3c0,0.1-0.1,0.2-0.1,0.3c-0.1,0.1-0.2,0.1-0.3,0.1s-0.2,0-0.3-0.1l-0.7-0.7l-0.1,0.1
	c-0.4,0.3-0.8,0.4-1.2,0.5l-0.2,0v1C221.9,404.9,221.7,405.1,221.4,405.1z M221.4,397.9c-1.3,0-2.4,1.1-2.4,2.4s1.1,2.4,2.4,2.4
	s2.4-1.1,2.4-2.4S222.8,397.9,221.4,397.9z"/>
<linearGradient id="SVGID_19_" gradientUnits="userSpaceOnUse" x1="220.8555" y1="400.3062" x2="222.0156" y2="400.3062">
	<stop  offset="0" style="stop-color:#00ED7E"/>
	<stop  offset="1" style="stop-color:#00AA7E"/>
</linearGradient>
<path class="st18" d="M221.4,400.9c-0.3,0-0.6-0.3-0.6-0.6c0-0.3,0.3-0.6,0.6-0.6s0.6,0.3,0.6,0.6
	C222,400.6,221.8,400.9,221.4,400.9z"/>
<linearGradient id="SVGID_20_" gradientUnits="userSpaceOnUse" x1="220.9556" y1="400.3059" x2="221.9155" y2="400.3059">
	<stop  offset="0" style="stop-color:#00ED7E"/>
	<stop  offset="1" style="stop-color:#00AA7E"/>
</linearGradient>
<path class="st19" d="M221.4,400.8c-0.3,0-0.5-0.2-0.5-0.5s0.2-0.5,0.5-0.5s0.5,0.2,0.5,0.5S221.7,400.8,221.4,400.8z"/>
</svg>
