<?xml version="1.0" encoding="utf-8"?>
<!-- Generator: Adobe Illustrator 23.0.2, SVG Export Plug-In . SVG Version: 6.00 Build 0)  -->
<svg version="1.1" id="Capa_1" xmlns="http://www.w3.org/2000/svg" xmlns:xlink="http://www.w3.org/1999/xlink" x="0px" y="0px"
	 viewBox="196.9 386.8 19.8 19.8" style="enable-background:new 196.9 386.8 19.8 19.8;" xml:space="preserve">
<style type="text/css">
	.st0{fill:#FFFFFF;}
</style>
<path class="st0" d="M216.5,405.8l-4.8-4.8c3.2-3.5,2.9-8.9-0.6-12.1c-3.5-3.2-8.9-2.9-12.1,0.6c-3.2,3.5-2.9,8.9,0.6,12.1
	c3.3,2.9,8.2,2.9,11.4,0l4.8,4.8c0.2,0.2,0.4,0.2,0.6,0C216.7,406.3,216.7,406,216.5,405.8C216.6,405.8,216.6,405.8,216.5,405.8
	L216.5,405.8z M205.4,403c-4.2,0-7.6-3.4-7.6-7.6s3.4-7.6,7.6-7.6c4.2,0,7.6,3.4,7.6,7.6S209.7,403,205.4,403z"/>
<path class="st0" d="M216.2,406.5c-0.1,0-0.2,0-0.3-0.1l-4.8-4.8l-0.1,0.1c-1.6,1.4-3.6,2.2-5.7,2.2s-4.1-0.8-5.7-2.2
	c-3.5-3.1-3.7-8.5-0.6-11.9c1.6-1.8,3.9-2.8,6.3-2.8c2.1,0,4.1,0.8,5.7,2.2c3.5,3.1,3.7,8.5,0.6,11.9l-0.1,0.1l4.8,4.8
	c0.1,0.1,0.1,0.2,0.1,0.3c0,0.1,0,0.2-0.1,0.2C216.4,406.4,216.3,406.5,216.2,406.5L216.2,406.5z M205.4,387.6
	c-4.3,0-7.7,3.5-7.7,7.7c0,4.3,3.5,7.7,7.7,7.7s7.7-3.5,7.7-7.7C213.2,391.1,209.7,387.6,205.4,387.6z"/>
</svg>
